<?xml version="1.0" encoding="UTF-8" standalone="no"?>
<!-- Created with Inkscape (http://www.inkscape.org/) -->

<svg
   width="768pt"
   height="768pt"
   viewBox="0 0 768 768"
   version="1.1"
   id="svg1"
   inkscape:version="1.3.2 (091e20e, 2023-11-25)"
   sodipodi:docname="kegalign_logo_modified.svg"
   xml:space="preserve"
   inkscape:export-filename="kegalign_logo_modified.png"
   inkscape:export-xdpi="300"
   inkscape:export-ydpi="300"
   xmlns:inkscape="http://www.inkscape.org/namespaces/inkscape"
   xmlns:sodipodi="http://sodipodi.sourceforge.net/DTD/sodipodi-0.dtd"
   xmlns="http://www.w3.org/2000/svg"
   xmlns:svg="http://www.w3.org/2000/svg"><sodipodi:namedview
     id="namedview1"
     pagecolor="#ffffff"
     bordercolor="#666666"
     borderopacity="1.0"
     inkscape:showpageshadow="2"
     inkscape:pageopacity="0.0"
     inkscape:pagecheckerboard="0"
     inkscape:deskcolor="#d1d1d1"
     inkscape:document-units="pt"
     inkscape:zoom="0.55405364"
     inkscape:cx="478.29304"
     inkscape:cy="652.4639"
     inkscape:window-width="1896"
     inkscape:window-height="1378"
     inkscape:window-x="295"
     inkscape:window-y="25"
     inkscape:window-maximized="0"
     inkscape:current-layer="layer1" /><defs
     id="defs1" /><g
     inkscape:label="Layer 1"
     inkscape:groupmode="layer"
     id="layer1"
     transform="translate(-894.30292,-1269.6864)"><path
       id="path1"
       style="fill:#000000;fill-opacity:1"
       d="M 1181.3552 1341.2323 C 1165.2744 1341.0444 1149.4078 1341.5655 1135.4279 1342.8627 C 1129.6768 1343.3963 1114.3656 1345.2821 1111.4279 1345.8187 C 1072.7965 1352.8761 1045.4405 1362.5582 1024.1965 1376.6932 C 1012.842 1384.2482 1005.5214 1392.948 1001.7316 1403.3915 L 999.76581 1408.8114 L 999.21063 1446.6864 C 998.89381 1468.3034 998.9429 1486.4442 999.32489 1488.9486 C 999.69299 1491.3621 1000.6863 1494.5106 1001.5324 1495.9447 C 1003.0604 1498.5339 1003.0611 1498.5644 1001.6086 1500.411 C 1000.8041 1501.4337 999.55006 1504.0242 998.82245 1506.1664 C 997.35291 1510.4932 997.24438 1514.184 997.73407 1543.202 L 998.04022 1561.3427 L 995.54999 1564.1786 C 994.18028 1565.7386 992.06372 1569.2123 990.84638 1571.8968 C 988.83317 1576.3368 988.66422 1577.323 988.98749 1582.7953 C 989.38957 1589.6019 991.38416 1595.5504 994.83515 1600.243 L 997.12177 1603.3544 L 997.19062 1653.9677 L 997.258 1704.5809 L 994.44989 1708.4071 C 989.93184 1714.5619 988.59701 1718.915 988.70038 1727.1571 C 988.82284 1736.9214 991.78182 1746.2577 996.25458 1750.9872 C 996.69994 1751.4581 996.99716 1752.0236 997.22577 1752.9252 C 999.26643 1754.9763 1002.0017 1757.4028 1005.8508 1760.3563 C 1005.8553 1760.3529 1005.8564 1760.1864 1005.861 1760.1864 C 1006.2136 1760.1864 1009.3535 1762.0775 1012.8395 1764.389 C 1037.8773 1780.9911 1060.5951 1789.8724 1100.7404 1798.7528 C 1126.6452 1804.4831 1143.004 1805.9364 1181.5998 1805.9364 C 1219.3441 1805.9364 1244.74 1803.1969 1271.9279 1796.1923 C 1278.1154 1794.5982 1284.106 1793.0932 1285.2404 1792.8495 C 1287.1262 1792.4444 1287.3029 1792.1122 1287.3029 1788.9677 L 1287.3029 1785.5282 L 1284.4904 1785.9208 C 1282.9435 1786.1371 1277.6377 1787.5361 1272.6999 1789.0292 C 1251.3916 1795.4725 1230.0399 1798.2626 1195.4279 1799.1263 C 1171.0137 1799.7355 1145.3672 1799.1492 1133.1779 1797.704 C 1120.8293 1796.2399 1102.8618 1793.1014 1096.2287 1791.2499 C 1092.6259 1790.2443 1087.1887 1788.8965 1084.1467 1788.2543 C 1077.4249 1786.835 1059.1486 1780.8769 1049.9279 1777.0995 C 1031.1154 1769.3926 1014.4996 1759.0275 1005.2018 1749.1971 C 996.47489 1739.9705 994.05663 1730.671 997.18622 1718.3739 C 997.63239 1716.6208 998.20708 1715.1864 998.46356 1715.1864 C 998.72003 1715.1864 999.77383 1716.7842 1000.8044 1718.7372 C 1007.1328 1730.7302 1028.147 1744.8267 1055.3083 1755.2982 C 1060.1861 1757.1787 1064.9095 1759.0275 1065.8039 1759.4071 C 1070.0124 1761.1936 1092.8546 1767.3116 1101.2678 1768.9052 C 1130.6402 1774.4684 1139.2793 1775.1861 1177.132 1775.2201 C 1208.7709 1775.2481 1225.417 1774.3584 1241.4973 1771.7762 C 1251.7987 1770.122 1271.9216 1765.5568 1276.5539 1763.8236 C 1280.3176 1762.4155 1280.5529 1762.1768 1280.5529 1759.7572 C 1280.5529 1758.053 1280.1988 1757.1864 1279.5026 1757.1864 C 1278.9249 1757.1864 1273.6093 1758.3418 1267.6901 1759.7543 C 1243.6602 1765.4888 1231.5725 1767.1555 1204.3884 1768.4877 C 1177.7891 1769.7914 1141.6862 1768.5878 1121.9279 1765.7382 C 1076.9556 1759.2519 1030.8744 1741.1598 1012.2067 1722.66 C 1004.2475 1714.7723 1004.9576 1720.5587 1004.7155 1661.6039 C 1004.5987 1633.1651 1004.6731 1609.4539 1004.881 1608.912 C 1005.1567 1608.1936 1006.3319 1608.6049 1009.2184 1610.4325 C 1025.3587 1620.6507 1044.9269 1629.0332 1064.5529 1634.1366 C 1086.4185 1639.8224 1113.95 1644.1273 1142.027 1646.2494 C 1173.977 1648.6643 1233.2002 1644.9082 1265.446 1638.4213 L 1277.1779 1636.0614 L 1277.4079 1632.8739 C 1277.574 1630.5784 1277.3547 1629.6864 1276.6227 1629.6864 C 1276.0637 1629.6864 1271.5716 1630.5482 1266.6413 1631.6024 C 1253.4274 1634.4279 1251.4154 1634.7577 1237.0529 1636.4598 C 1222.5534 1638.1781 1220.5856 1638.36 1204.6623 1639.4393 C 1190.3863 1640.4073 1149.6445 1640.3947 1136.1779 1639.4188 C 1085.5743 1635.7515 1040.7356 1623.2571 1013.1779 1605.1429 C 1001.2981 1597.3344 995.57836 1588.8331 996.65888 1580.5922 C 997.14701 1576.8694 999.82272 1569.6725 1000.7077 1569.7025 C 1000.9663 1569.7113 1002.1333 1571.07 1003.3019 1572.7216 C 1004.4791 1574.3853 1008.8272 1578.0961 1013.0519 1581.0433 C 1023.9799 1588.6667 1038.5504 1595.3546 1057.8337 1601.5995 C 1090.2284 1612.0904 1148.3724 1618.8549 1189.2814 1616.8925 C 1217.1027 1615.558 1246.2535 1612.4848 1248.0407 1610.6976 C 1248.2629 1610.4754 1248.2179 1609.2561 1247.9396 1607.9891 C 1247.3678 1605.3858 1246.6178 1605.2362 1239.9899 1606.3983 C 1233.3643 1607.5599 1222.0637 1608.616 1202.5529 1609.8964 C 1157.0347 1612.8835 1104.9625 1608.2869 1068.6779 1598.078 C 1036.5045 1589.0256 1008.7377 1574.1479 1006.0661 1564.5302 C 1004.4174 1558.5946 1005.4267 1509.5184 1007.2585 1506.5546 C 1007.4646 1506.221 1009.7241 1507.6928 1012.28 1509.8241 C 1025.8066 1521.1035 1041.4323 1528.6555 1070.0007 1537.722 C 1083.3196 1541.949 1092.758 1544.126 1110.6779 1547.1029 C 1134.8374 1551.1165 1148.17 1551.9414 1180.8029 1551.4418 C 1209.8102 1550.9977 1215.3057 1550.655 1237.4279 1547.9188 C 1285.6687 1541.9522 1324.3497 1528.1317 1341.8054 1510.6239 C 1345.1983 1507.2208 1348.1521 1504.4364 1348.3693 1504.4364 C 1349.508 1504.4364 1351.0529 1509.3793 1351.0529 1513.0233 L 1351.0529 1517.1864 L 1353.4318 1517.1864 C 1356.1489 1517.1864 1358.5529 1515.3627 1358.5529 1513.3016 C 1358.5529 1511.0714 1355.8338 1503.9361 1354.0046 1501.3676 C 1352.3812 1499.0877 1352.3656 1498.9053 1353.5124 1495.1654 C 1354.5151 1491.8951 1354.7273 1485.0083 1354.9113 1449.6864 C 1355.1277 1408.124 1355.125 1408.0541 1353.4318 1403.1864 C 1348.8486 1390.0112 1336.0839 1376.7097 1320.8522 1369.2386 C 1299.6377 1358.833 1280.8313 1352.6236 1255.8029 1347.7611 C 1235.5529 1343.827 1208.1562 1341.5454 1181.3552 1341.2323 z M 1177.0529 1348.8217 C 1218.5766 1348.8322 1223.0485 1349.1007 1246.0207 1352.973 C 1269.1458 1356.8712 1292.6328 1363.9088 1310.9279 1372.4218 C 1318.8631 1376.1139 1330.992 1384.0511 1335.3337 1388.3929 C 1342.1448 1395.204 1347.254 1407.2717 1346.1442 1413.9266 C 1345.4681 1417.9811 1342.8955 1422.9884 1339.4191 1427.0179 C 1335.8395 1431.1671 1323.0898 1440.2289 1315.4279 1444.0687 C 1304.8534 1449.3682 1296.5435 1454.5121 1298.0768 1454.809 C 1300.4549 1455.2696 1316.3877 1447.714 1329.8259 1439.7533 C 1337.5701 1435.1656 1342.0294 1431.3918 1345.1892 1426.7513 C 1346.1454 1425.3465 1347.1651 1424.1908 1347.4553 1424.1908 C 1347.7456 1424.188 1347.8204 1439.6192 1347.6208 1458.4813 C 1347.2605 1492.5191 1347.2441 1492.8056 1345.4938 1496.6288 C 1343.4591 1501.0732 1337.3059 1507.4197 1330.2536 1512.3495 C 1316.8338 1521.7307 1294.1161 1530.4472 1269.8303 1535.5336 C 1255.4554 1538.5442 1229.7705 1542.3645 1216.904 1543.4056 C 1204.3637 1544.4204 1157.3451 1544.9269 1146.3029 1544.1659 C 1109.9937 1541.6634 1088.5631 1537.3314 1057.0529 1526.1234 C 1030.713 1516.7544 1016.2891 1507.3707 1009.7868 1495.3749 L 1007.1779 1490.5614 L 1007.0051 1454.9364 L 1006.8308 1419.3114 L 1008.3425 1422.3114 C 1010.3589 1426.3134 1015.6118 1431.5587 1022.9587 1436.9071 C 1031.0576 1442.8029 1040.2403 1447.2931 1049.7214 1449.994 C 1052.0829 1450.6668 1056.1329 1452.1704 1058.7214 1453.3353 C 1070.2038 1458.5027 1093.9941 1465.346 1100.6965 1465.41 C 1103.6476 1465.438 1105.2075 1464.2778 1103.0007 1463.6962 C 1100.9843 1463.1647 1095.5438 1461.9061 1089.3029 1460.5277 C 1079.8462 1458.4391 1064.7497 1454.1607 1059.8347 1452.1766 C 1051.4075 1448.7747 1040.8971 1443.1282 1031.0871 1436.7343 C 1019.3908 1429.1106 1013.299 1422.9719 1010.2043 1415.6903 C 1008.2266 1411.0369 1008.1446 1410.442 1008.9372 1406.4955 C 1011.5709 1393.3811 1026.5539 1380.2574 1049.9528 1370.5717 C 1067.3735 1363.3604 1075.5701 1360.7185 1091.9411 1357.035 C 1126.1947 1349.3278 1131.5629 1348.8097 1177.0529 1348.8217 z M 1176.6384 1358.6669 C 1162.3686 1358.767 1148.2993 1359.2571 1141.8029 1360.0848 C 1140.3592 1360.2687 1134.8145 1360.9462 1129.4821 1361.5892 C 1109.2623 1364.0272 1096.4966 1366.7345 1078.8029 1372.3383 C 1050.3831 1381.339 1032.2325 1392.2739 1025.3156 1404.5619 L 1023.486 1407.8124 L 1022.0827 1404.9779 C 1020.3116 1401.4029 1019.0322 1400.9871 1018.0178 1403.6552 C 1017.0461 1406.2108 1017.7295 1410.7286 1019.7375 1415.0209 C 1023.8013 1423.7079 1037.8895 1434.6507 1053.3029 1441.0922 C 1078.5872 1451.6587 1117.6524 1459.3075 1156.0529 1461.2103 C 1164.5946 1461.6335 1200.83 1460.9468 1212.5944 1460.1381 C 1231.2931 1458.8527 1260.5386 1454.0067 1274.9279 1449.8094 C 1305.1788 1440.9856 1320.1625 1433.6453 1330.3181 1422.6761 C 1336.6046 1415.8862 1339.615 1407.3927 1337.5954 1402.1449 C 1336.6213 1399.6137 1336.116 1399.9425 1334.4548 1404.1869 L 1333.2316 1407.3114 L 1332.1066 1404.6219 C 1330.6191 1401.065 1322.5209 1392.4805 1317.3234 1388.951 C 1310.9434 1384.6187 1292.996 1375.9209 1285.0529 1373.3124 C 1267.5686 1367.5706 1239.7877 1362.3028 1212.6779 1359.5883 C 1205.3783 1358.8574 1190.9081 1358.5667 1176.6384 1358.6669 z M 1380.6105 1360.7089 C 1378.3568 1360.7245 1375.6847 1360.9045 1372.2009 1361.163 C 1358.4262 1362.1848 1352.147 1363.3531 1343.9645 1366.4159 C 1337.4367 1368.8593 1334.1976 1371.3875 1334.9807 1373.4281 C 1335.8426 1375.6743 1338.5002 1375.6346 1343.2058 1373.3051 C 1351.2678 1369.3137 1360.3633 1366.9904 1368.3029 1366.8964 L 1375.4279 1366.8114 L 1375.6638 1369.6766 C 1375.7936 1371.2523 1375.5399 1372.9755 1375.0998 1373.5057 C 1374.6598 1374.0359 1372.0225 1374.6681 1369.239 1374.912 C 1361.3972 1375.599 1349.5019 1380.0312 1348.5012 1382.639 C 1347.7779 1384.5239 1348.7227 1386.6864 1350.2692 1386.6864 C 1351.02 1386.6864 1353.8152 1385.6659 1356.4802 1384.4188 C 1362.7483 1381.4856 1369.9374 1380.162 1373.1984 1381.3412 C 1374.5092 1381.8152 1379.2349 1382.5499 1383.6999 1382.973 C 1388.165 1383.3961 1392.9282 1384.2687 1394.2849 1384.9125 C 1398.169 1386.7557 1406.8186 1396.3833 1409.4343 1401.7758 C 1411.6875 1406.4211 1414.2195 1415.3023 1415.1149 1421.6976 C 1415.497 1424.4263 1415.3506 1424.9001 1413.9855 1425.3334 C 1411.2582 1426.199 1410.0849 1430.4489 1410.6618 1437.3744 L 1411.1716 1443.4989 L 1408.9846 1444.2606 L 1406.799 1445.0223 L 1406.3127 1468.2826 C 1405.9945 1483.5206 1406.1005 1493.0216 1406.6203 1495.8334 C 1407.0566 1498.194 1407.136 1500.3714 1406.7961 1500.6718 C 1406.0028 1501.3729 1387.871 1510.6075 1368.6779 1520.0853 C 1360.4279 1524.1593 1347.9404 1530.4404 1340.9279 1534.0438 C 1333.9154 1537.6472 1322.9924 1542.9255 1316.6555 1545.7743 C 1297.663 1554.3123 1297.8453 1554.1106 1297.8073 1566.6864 C 1297.7918 1571.8427 1297.5296 1576.4546 1297.2243 1576.9344 C 1296.6007 1577.9146 1288.108 1581.3797 1280.1779 1583.8895 C 1277.2904 1584.8034 1272.2279 1586.9902 1268.9279 1588.7499 C 1265.6279 1590.5095 1261.7467 1592.3945 1260.3029 1592.9379 C 1255.9465 1594.5777 1253.5529 1597.2866 1253.5529 1600.577 C 1253.5529 1605.2992 1258.0709 1608.3443 1266.2736 1609.1508 C 1270.0101 1609.5182 1270.7926 1609.3248 1274.0607 1607.2201 C 1276.1238 1605.8915 1278.2467 1605.0557 1278.9738 1605.2865 C 1279.6781 1605.51 1281.5871 1607.0574 1283.216 1608.7245 L 1286.1779 1611.7552 L 1286.3947 1626.9091 C 1287.6308 1713.5386 1287.7954 1720.1001 1288.7956 1722.1473 C 1289.7564 1724.1137 1289.6804 1724.35 1287.4611 1726.2723 L 1285.1071 1728.3114 L 1285.57 1739.1044 C 1286.024 1749.6756 1286.0794 1749.9481 1288.2302 1752.3978 L 1290.426 1754.8998 L 1290.5519 1765.9799 C 1290.6954 1778.5861 1291.584 1781.4618 1297.0983 1787.1439 L 1300.0529 1790.1879 L 1300.0529 1798.7118 C 1300.0529 1806.1311 1300.2499 1807.4846 1301.5705 1809.1635 C 1304.6495 1813.077 1316.5719 1815.7504 1318.8278 1813.0321 C 1319.5933 1812.1099 1319.6121 1810.4571 1318.9201 1804.826 C 1317.6071 1794.142 1317.6892 1793.1864 1319.9279 1793.1864 C 1320.9592 1793.1864 1322.4779 1793.8614 1323.3029 1794.6864 C 1324.6101 1795.9936 1324.8029 1797.1864 1324.8029 1803.9677 L 1324.8029 1811.7489 L 1322.5529 1812.1986 C 1319.7547 1812.7582 1319.6978 1814.0899 1322.3654 1816.5858 C 1324.8954 1818.9528 1328.3381 1820.734 1332.0905 1821.6176 C 1337.7031 1822.9392 1340.2371 1822.1933 1342.3649 1818.5912 C 1343.497 1816.6747 1343.6033 1815.2563 1343.1428 1808.1512 L 1342.6096 1799.9291 L 1346.7595 1795.9418 C 1349.5081 1793.3008 1351.1774 1790.9793 1351.7062 1789.0643 C 1352.2358 1787.1462 1352.3477 1779.3249 1352.0373 1765.8187 C 1351.647 1748.8436 1351.7438 1745.3097 1352.6232 1744.5331 C 1356.8942 1740.7616 1366.8077 1734.2199 1372.5202 1731.4022 C 1376.2853 1729.545 1383.9503 1725.2202 1389.5549 1721.7928 C 1395.1594 1718.3654 1402.3734 1714.0801 1405.5861 1712.2684 C 1408.7988 1710.4566 1417.6717 1705.1896 1425.3029 1700.5643 C 1432.9342 1695.939 1442.7217 1690.5233 1447.0529 1688.5292 C 1451.3842 1686.5351 1459.1467 1682.7232 1464.3029 1680.058 C 1473.2597 1675.4285 1473.6885 1675.2861 1473.9255 1676.8881 C 1474.062 1677.8104 1474.062 1678.6632 1473.9255 1678.7821 C 1473.0506 1679.5445 1442.1585 1698.7514 1431.3029 1705.2826 C 1424.0842 1709.6258 1415.8154 1714.7745 1412.9279 1716.7245 C 1402.5634 1723.7236 1401.1619 1724.4246 1397.7697 1724.2963 C 1394.7999 1724.184 1394.4129 1724.403 1392.3557 1727.368 C 1388.1529 1733.4251 1386.8732 1734.7579 1382.4182 1737.7172 C 1379.9592 1739.3505 1377.8625 1740.6864 1377.7585 1740.6864 C 1377.6546 1740.6864 1376.8106 1739.1677 1375.8835 1737.3114 C 1374.9565 1735.4552 1373.7994 1733.9425 1373.3127 1733.9525 C 1371.5621 1733.9851 1366.3936 1736.7758 1364.7258 1738.5887 C 1363.1082 1740.3472 1363.0617 1740.713 1363.8015 1745.9291 C 1364.8332 1753.2037 1364.4713 1754.1864 1360.7531 1754.1864 C 1357.5998 1754.1864 1357.1293 1753.7268 1358.925 1752.3949 C 1359.6123 1751.8851 1360.235 1749.6711 1360.5305 1746.6864 L 1361.0139 1741.8114 L 1359.0334 1743.6293 C 1357.3374 1745.1866 1357.0529 1746.0616 1357.0529 1749.723 C 1357.0529 1752.0743 1356.584 1755.3295 1356.01 1756.9564 C 1354.6111 1760.9213 1355.5009 1762.4364 1359.2282 1762.4364 C 1362.2896 1762.4364 1367.5452 1759.2531 1369.0134 1756.5096 C 1369.4474 1755.6988 1369.8029 1752.8196 1369.8029 1750.1112 C 1369.8029 1746.4521 1370.0652 1745.1864 1370.8254 1745.1864 C 1371.84 1745.1864 1372.8029 1749.6351 1372.8029 1754.3256 C 1372.8029 1757.1706 1375.797 1760.1864 1378.6213 1760.1864 C 1382.8384 1760.1864 1399.8029 1748.8484 1399.8029 1746.0302 C 1399.8029 1745.7319 1400.8998 1745.6155 1402.2404 1745.7709 C 1404.2112 1745.9995 1406.0421 1745.1733 1411.8029 1741.4554 C 1422.7189 1734.4106 1451.1265 1716.6706 1466.1779 1707.5004 C 1480.808 1698.587 1482.7079 1697.1619 1483.3459 1694.62 C 1483.6063 1693.5825 1485.2724 1692.1351 1487.7228 1690.8158 C 1494.8569 1686.9749 1500.2655 1682.9336 1501.5612 1680.4769 C 1503.1896 1677.389 1503.1774 1670.8767 1501.5378 1668.3744 C 1500.0768 1666.1446 1496.3035 1665.2493 1493.2541 1666.4086 C 1492.0668 1666.8601 1490.9503 1667.0843 1490.7741 1666.9081 C 1490.1404 1666.2744 1495.6394 1662.7704 1507.4279 1656.2953 C 1532.2911 1642.6387 1539.7214 1638.3045 1542.3615 1635.9193 C 1545.5346 1633.0526 1549.6224 1625.7485 1550.8312 1620.786 C 1552.0532 1615.7697 1551.1488 1480.992 1549.8718 1477.8114 C 1546.6101 1469.6872 1542.7185 1467.3505 1528.5451 1465.0043 C 1518.1097 1463.2769 1517.8891 1463.1998 1515.6237 1460.5262 C 1513.7191 1458.2784 1512.4822 1457.6273 1508.4987 1456.7733 C 1500.0991 1454.9725 1498.6005 1455.2383 1487.9279 1460.434 C 1482.5654 1463.0445 1476.7804 1466.0631 1475.0725 1467.1415 C 1471.2731 1469.5402 1447.3296 1481.9364 1446.4963 1481.9364 C 1446.0304 1481.9364 1445.5529 1464.5392 1445.5529 1447.5829 C 1445.5529 1446.4403 1444.7781 1445.4396 1443.2326 1444.5887 L 1440.9123 1443.3114 L 1441.3517 1437.8329 C 1441.719 1433.2543 1441.5433 1431.8684 1440.2868 1429.4056 C 1439.4598 1427.7845 1437.9823 1425.9328 1437.0026 1425.2909 C 1435.5275 1424.3244 1435.1354 1423.2594 1434.7263 1419.0931 C 1433.364 1405.219 1430.6643 1397.2277 1424.0021 1387.3588 C 1418.103 1378.6203 1412.7822 1374.1595 1400.1545 1367.3666 C 1390.3611 1362.0984 1387.3716 1360.662 1380.6105 1360.7089 z M 1100.3405 1361.475 C 1099.5292 1360.6637 1074.868 1366.2806 1069.882 1368.4125 C 1068.3945 1369.0485 1065.2521 1370.1961 1062.8991 1370.9613 C 1053.1596 1374.129 1039.6759 1380.6585 1031.0475 1386.3861 C 1022.912 1391.7869 1017.7083 1398.8413 1020.0978 1401.2308 C 1020.3972 1401.5302 1023.3503 1398.9012 1026.6603 1395.3876 C 1037.7327 1383.6339 1056.3976 1374.4538 1085.5529 1366.4247 C 1094.4476 1363.9752 1100.736 1361.8705 1100.3405 1361.475 z M 1258.4279 1362.0858 C 1257.2402 1362.0858 1257.3182 1362.2109 1258.8029 1362.6864 C 1259.8342 1363.0167 1261.3529 1363.287 1262.1779 1363.287 C 1263.3657 1363.287 1263.2876 1363.1619 1261.8029 1362.6864 C 1260.7717 1362.3561 1259.2529 1362.0858 1258.4279 1362.0858 z M 1192.4045 1365.099 C 1196.4436 1365.1719 1199.1155 1365.3581 1200.6779 1365.663 C 1203.1529 1366.146 1210.7467 1366.8254 1217.5529 1367.1732 C 1234.2441 1368.0262 1262.0553 1372.8246 1278.322 1377.6571 C 1285.7646 1379.8681 1297.2471 1384.6075 1304.7639 1388.5717 C 1313.0623 1392.9479 1324.8823 1403.688 1327.6725 1409.3885 L 1329.4157 1412.9525 L 1327.8088 1415.5526 C 1325.2424 1419.7051 1317.3613 1426.4412 1315.113 1426.4042 C 1314.0489 1426.3867 1308.1154 1424.5101 1301.9279 1422.2323 C 1278.2224 1413.5057 1271.823 1411.5432 1259.5529 1409.2435 C 1243.7921 1406.2896 1237.4594 1405.4888 1229.6555 1405.4598 C 1223.4394 1405.4368 1223.3446 1405.4076 1219.0705 1402.1947 C 1216.6986 1400.4117 1211.759 1397.6423 1208.093 1396.0409 L 1201.4279 1393.1302 L 1183.0529 1393.0951 C 1167.7424 1393.0668 1163.6944 1393.293 1158.7775 1394.4457 C 1150.3278 1396.4265 1145.1934 1398.3166 1141.5026 1400.8075 C 1138.7347 1402.6756 1137.088 1403.107 1129.8381 1403.8661 C 1122.346 1404.6505 1116.9371 1405.5499 1102.0529 1408.4833 C 1082.8931 1412.2594 1062.7054 1418.4385 1050.5344 1424.2523 C 1047.1556 1425.8663 1043.7144 1427.1864 1042.8864 1427.1864 C 1040.5047 1427.1864 1030.5558 1418.4227 1027.5612 1413.6864 C 1026.4085 1411.8633 1026.4914 1411.6571 1030.5231 1406.3285 C 1035.8903 1399.2349 1041.5074 1395.1341 1054.4279 1388.8778 C 1085.1865 1373.9842 1124.6041 1366.3084 1175.9279 1365.2162 C 1182.9591 1365.0665 1188.3654 1365.026 1192.4045 1365.099 z M 1384.3898 1365.9559 C 1384.9425 1365.9672 1385.5912 1366.1414 1386.36 1366.4598 C 1390.9134 1368.3458 1391.9604 1373.4481 1388.2731 1375.7821 C 1387.3956 1376.3375 1385.1973 1377.0315 1383.3879 1377.3231 C 1380.2078 1377.8357 1380.1133 1377.7941 1380.5226 1376.0824 C 1380.7555 1375.1085 1381.1751 1372.7199 1381.4558 1370.7738 C 1381.9487 1367.3568 1382.732 1365.922 1384.3898 1365.9559 z M 1221.8303 1370.6566 C 1220.2817 1370.6189 1219.1108 1370.6717 1218.4084 1370.8295 C 1214.7014 1371.6625 1210.9174 1374.2882 1210.0192 1376.6508 C 1209.1297 1378.9904 1210.3966 1388.9798 1212.0158 1392.392 C 1214.0467 1396.672 1214.5148 1396.8034 1243.8029 1401.3597 C 1263.505 1404.4247 1269.5323 1405.7706 1282.5729 1410.014 C 1287.8553 1411.7328 1295.0467 1413.7443 1298.5529 1414.4847 C 1306.2599 1416.112 1305.5043 1416.0285 1306.5114 1415.3622 C 1308.6502 1413.9472 1310.1384 1409.4353 1310.1574 1404.3114 C 1310.174 1399.9137 1309.8439 1398.4925 1308.1169 1395.5546 C 1303.9765 1388.5114 1297.9029 1385.3935 1277.5529 1379.8646 C 1261.9477 1375.6249 1232.6701 1370.9207 1221.8303 1370.6566 z M 1396.4001 1371.6864 C 1397.5002 1371.6864 1403.558 1375.4886 1408.592 1379.3387 C 1415.5492 1384.6599 1422.8915 1395.586 1425.6252 1404.6864 C 1426.8821 1408.8708 1429.0147 1422.1026 1429.0397 1425.8739 C 1429.0526 1427.8154 1428.8584 1427.9364 1425.7321 1427.9364 L 1422.4113 1427.9364 L 1421.9147 1423.6239 C 1420.9426 1415.1703 1418.6019 1405.177 1416.6677 1401.2235 C 1411.8686 1391.4145 1405.1019 1384.1222 1396.9904 1380.0184 C 1395.2373 1379.1314 1393.8029 1378.1988 1393.8029 1377.9457 C 1393.8029 1376.2473 1395.6955 1371.6864 1396.4001 1371.6864 z M 1294.2316 1371.9457 C 1293.186 1371.9018 1293.6754 1372.4824 1295.985 1373.7006 C 1297.6038 1374.5544 1299.9404 1375.797 1301.1779 1376.4618 C 1302.4154 1377.1266 1305.9198 1378.8587 1308.965 1380.3114 C 1317.4506 1384.3594 1324.344 1389.2885 1329.4963 1394.9906 C 1332.0711 1397.8402 1334.431 1400.1791 1334.7404 1400.1791 C 1335.0498 1400.1831 1335.3029 1399.3692 1335.3029 1398.37 C 1335.3029 1392.2819 1317.2291 1379.1491 1301.6833 1373.9408 C 1297.8571 1372.6589 1295.2773 1371.9896 1294.2316 1371.9457 z M 1206.2414 1372.101 C 1205.7485 1371.7928 1204.6383 1372.1297 1202.9807 1373.1542 C 1199.8608 1375.0823 1198.8029 1377.9083 1198.8029 1384.3134 C 1198.8029 1388.3141 1199.1023 1389.5338 1200.4333 1390.9506 C 1203.3344 1394.0387 1203.8308 1393.2564 1204.2053 1384.9989 C 1204.4375 1379.8783 1204.9699 1376.5116 1205.8005 1374.9164 C 1206.6099 1373.3617 1206.7343 1372.4091 1206.2414 1372.101 z M 1228.551 1377.4506 C 1235.2893 1377.6095 1255.3998 1380.6629 1267.217 1383.3217 C 1276.221 1385.3476 1292.9322 1390.6259 1297.2697 1392.8138 C 1302.7351 1395.5706 1304.7288 1401.7595 1301.0768 1404.6322 C 1297.983 1407.0657 1294.7857 1406.6974 1279.4601 1402.142 C 1271.9071 1399.8968 1251.6624 1395.6089 1238.3508 1393.4349 C 1225.3324 1391.3088 1220.9466 1388.9432 1220.0754 1383.5751 C 1219.771 1381.6989 1220.0591 1380.5368 1221.1682 1379.1688 C 1222.5602 1377.4497 1223.119 1377.3225 1228.551 1377.4506 z M 1183.8967 1398.8651 C 1186.453 1398.9354 1188.993 1399.1011 1191.4684 1399.3705 C 1201.5593 1400.4684 1205.214 1401.5674 1210.7912 1405.1786 C 1217.3614 1409.4327 1217.7424 1411.2168 1213.1393 1416.1752 C 1209.7559 1419.8198 1203.7274 1422.7167 1196.3566 1424.2377 C 1181.881 1427.2249 1160.3617 1425.1639 1150.5642 1419.8519 C 1146.6313 1417.7197 1142.5529 1413.5762 1142.5529 1411.7133 C 1142.5529 1411.0694 1143.1405 1409.5488 1143.8581 1408.3339 C 1147.2795 1402.5418 1166.0023 1398.3732 1183.8967 1398.8651 z M 1188.612 1402.558 C 1186.3156 1402.3911 1183.3441 1402.4515 1178.2629 1402.6327 C 1168.1756 1402.9923 1166.1024 1403.3026 1159.4279 1405.4584 C 1150.6727 1408.2863 1147.7874 1410.5465 1149.5344 1413.2074 C 1151.9951 1416.9554 1159.3892 1420.3308 1167.6779 1421.4896 C 1168.9154 1421.6626 1175.3279 1421.7046 1181.9279 1421.5834 C 1196.547 1421.315 1202.6401 1419.7765 1207.2243 1415.1923 C 1208.7801 1413.6365 1210.0529 1411.8812 1210.0529 1411.2928 C 1210.0529 1409.5614 1208.3304 1407.8053 1206.1066 1407.2689 C 1204.3726 1406.8507 1204.1142 1406.975 1204.5187 1408.0292 C 1205.254 1409.9454 1203.2893 1412.9131 1200.2634 1414.4569 C 1198.7712 1415.2181 1194.7111 1416.4177 1191.2399 1417.1229 C 1185.7486 1418.2384 1183.6859 1418.2947 1175.3713 1417.558 C 1163.0357 1416.4649 1159.5398 1415.5444 1156.3723 1412.557 C 1153.3139 1409.6726 1153.1561 1408.6274 1155.6852 1407.9926 C 1157.1135 1407.6341 1158.6983 1408.2567 1162.2521 1410.5721 C 1164.9362 1412.3208 1168.6756 1413.9972 1171.0104 1414.4979 C 1175.5299 1415.4671 1187.5238 1414.909 1192.2961 1413.5077 C 1195.7557 1412.4918 1201.545 1407.5904 1200.7687 1406.3343 C 1200.4704 1405.8517 1197.8353 1404.7302 1194.9123 1403.8427 C 1192.5298 1403.119 1190.9084 1402.7249 1188.612 1402.558 z M 1181.2849 1407.0668 C 1184.9948 1407.1664 1188.4363 1407.7098 1190.238 1408.6605 L 1192.4279 1409.8163 L 1190.1779 1410.7216 C 1185.5818 1412.5698 1165.8029 1412.0109 1165.8029 1410.0331 C 1165.8029 1409.7632 1168.0132 1408.9097 1170.7145 1408.1361 C 1173.5953 1407.3111 1177.5747 1406.9672 1181.2849 1407.0668 z M 1136.0944 1410.5238 C 1136.4714 1410.7386 1136.5361 1415.5099 1136.2438 1421.5218 C 1135.6934 1432.8422 1136.0391 1434.9133 1138.945 1437.7113 C 1141.7052 1440.369 1149.1188 1443.4147 1156.4279 1444.8934 C 1161.6125 1445.9424 1166.5697 1446.2551 1177.8029 1446.2411 C 1195.7364 1446.2181 1203.6966 1444.788 1213.7106 1439.7899 C 1222.218 1435.5438 1222.8015 1434.4383 1222.8015 1422.5428 C 1222.8023 1416.3532 1223.0786 1413.5961 1223.7404 1413.1678 C 1225.0052 1412.3492 1240.221 1412.6944 1246.403 1413.682 C 1249.1392 1414.1191 1254.3148 1415.2766 1257.9035 1416.2543 C 1261.4921 1417.2319 1268.1404 1418.7289 1272.6779 1419.5795 C 1285.1647 1421.9202 1298.342 1426.7908 1303.0529 1430.8075 C 1305.5034 1432.8968 1305.5904 1432.8459 1290.0202 1438.4467 C 1273.0888 1444.5368 1262.2553 1447.1881 1239.6779 1450.766 C 1231.1066 1452.1243 1229.0241 1452.3296 1213.0529 1453.3939 C 1203.3104 1454.0431 1160.8519 1454.9315 1160.3391 1454.4969 C 1160.2504 1454.4217 1156.1156 1454.1591 1151.1516 1453.9125 C 1125.3325 1452.6299 1089.2929 1446.3534 1070.9382 1439.9437 C 1067.6328 1438.7894 1062.0592 1436.8371 1058.5529 1435.6049 C 1051.8107 1433.2354 1050.5783 1431.8922 1053.4567 1430.0531 C 1057.1595 1427.6874 1073.5397 1422.3364 1085.1779 1419.6893 C 1088.4779 1418.9387 1094.8904 1417.477 1099.4279 1416.4418 C 1113.9514 1413.1284 1134.7688 1409.7685 1136.0944 1410.5238 z M 1110.883 1421.9364 C 1107.9208 1421.9364 1106.1802 1422.7396 1107.4274 1423.5302 C 1108.8272 1424.4172 1109.7048 1424.3081 1111.384 1423.038 C 1112.7838 1421.9789 1112.7648 1421.9364 1110.883 1421.9364 z M 1216.5729 1421.9364 C 1216.6997 1421.9364 1216.8029 1423.0141 1216.8029 1424.3314 C 1216.8029 1426.2366 1215.9964 1427.5069 1212.861 1430.5438 C 1208.4941 1434.7735 1203.0338 1436.9362 1193.1779 1438.3368 C 1186.3746 1439.3035 1177.3789 1439.8424 1174.0529 1439.4823 C 1160.65 1438.0313 1145.5529 1434.2244 1145.5529 1432.2958 C 1145.5529 1431.8739 1144.6986 1430.5132 1143.6545 1429.2723 C 1141.9532 1427.2504 1141.6987 1424.9688 1143.0114 1423.5082 C 1143.1612 1423.3415 1145.5669 1424.236 1148.3566 1425.4945 C 1159.1462 1430.3623 1160.3039 1430.5648 1177.0529 1430.5248 C 1194.649 1430.4827 1201.8787 1429.2138 1211.1838 1424.5321 C 1214.0205 1423.1049 1216.4461 1421.9364 1216.5729 1421.9364 z M 1101.4553 1422.3773 C 1099.9836 1422.2923 1097.5529 1423.0558 1097.5529 1423.8964 C 1097.5529 1424.4684 1098.0819 1424.9364 1098.7277 1424.9364 C 1100.3829 1424.9364 1102.9166 1423.4774 1102.4821 1422.7743 C 1102.3303 1422.5287 1101.9458 1422.4057 1101.4553 1422.3773 z M 1247.7463 1422.8241 C 1245.6594 1423.0649 1244.7737 1424.7239 1245.5915 1426.8553 C 1246.1857 1428.4036 1247.2895 1428.1909 1248.6354 1426.2694 C 1250.4189 1423.7231 1250.116 1422.5506 1247.7463 1422.8241 z M 1089.6926 1425.1752 C 1087.8748 1425.4586 1085.5673 1426.6037 1086.007 1427.3153 C 1086.6296 1428.3226 1091.7522 1427.7431 1092.1198 1426.6239 C 1092.2891 1426.1085 1091.8868 1425.4798 1091.2263 1425.2264 C 1090.8488 1425.0816 1090.2985 1425.0807 1089.6926 1425.1752 z M 1257.3967 1425.8578 C 1256.994 1425.9214 1256.5724 1426.1105 1256.1691 1426.4452 C 1255.5556 1426.9544 1255.0529 1428.0266 1255.0529 1428.8285 C 1255.0529 1431.0638 1259.0933 1430.4091 1259.4182 1428.121 C 1259.6336 1426.6039 1258.6048 1425.6668 1257.3967 1425.8578 z M 1268.1779 1426.8114 C 1267.1934 1426.8114 1266.595 1427.3913 1266.4377 1428.4989 C 1266.2411 1429.8832 1266.5543 1430.1864 1268.1779 1430.1864 C 1269.8016 1430.1864 1270.1148 1429.8832 1269.9182 1428.4989 C 1269.7609 1427.3913 1269.1625 1426.8114 1268.1779 1426.8114 z M 1083.3234 1427.1864 C 1081.4583 1427.1864 1077.5237 1428.8113 1075.4279 1430.4471 C 1074.0148 1431.5501 1074.1016 1431.5915 1076.9279 1431.1708 C 1081.8099 1430.4442 1087.0392 1427.1864 1083.3234 1427.1864 z M 1102.4059 1429.5243 C 1101.0902 1429.5489 1099.0529 1430.2772 1099.0529 1430.951 C 1099.0529 1431.3556 1099.6435 1431.6847 1100.3654 1431.6747 C 1102.0671 1431.6598 1104.0303 1430.4133 1103.3786 1429.7616 C 1103.2024 1429.5854 1102.8445 1429.5161 1102.4059 1429.5243 z M 1254.2355 1432.4364 C 1252.5931 1432.4364 1251.6605 1434.0824 1252.3239 1435.8114 C 1252.93 1437.3909 1254.026 1437.2118 1255.3547 1435.3148 C 1256.6846 1433.4161 1256.3037 1432.4364 1254.2355 1432.4364 z M 1093.6271 1432.5433 C 1093.5163 1432.4113 1093.1036 1432.4388 1092.3264 1432.5521 C 1091.3472 1432.6948 1090.4058 1433.2333 1090.236 1433.7489 C 1089.7916 1435.0983 1091.9384 1434.9048 1093.113 1433.4896 C 1093.5467 1432.9671 1093.738 1432.6754 1093.6271 1432.5433 z M 1416.6779 1432.6122 L 1418.5529 1433.3373 C 1420.9806 1434.2759 1429.4836 1434.4881 1432.6154 1433.6888 L 1435.0529 1433.0677 L 1435.0529 1439.1102 C 1435.0529 1444.737 1434.9238 1445.2369 1433.1677 1446.3876 C 1432.1305 1447.0672 1429.8524 1447.7306 1428.1052 1447.8612 C 1424.7326 1448.1133 1418.6638 1447.1069 1417.7224 1446.14 C 1417.4124 1445.8217 1417.0503 1442.6479 1416.9182 1439.0868 L 1416.6779 1432.6122 z M 1264.362 1433.9862 C 1263.6633 1433.99 1263.0842 1434.3847 1262.7829 1435.1698 C 1262.4914 1435.9294 1262.8547 1436.8024 1263.7292 1437.4418 C 1266.4597 1439.4385 1268.9764 1437.4682 1266.6574 1435.1493 C 1265.8783 1434.3699 1265.0607 1433.9824 1264.362 1433.9862 z M 1012.8132 1436.1864 C 1011.3295 1436.1864 1011.3029 1436.6316 1011.3029 1461.9369 C 1011.3029 1476.0994 1011.5349 1487.9179 1011.8185 1488.2015 C 1013.6657 1490.0487 1013.9376 1486.9902 1014.1257 1462.1874 C 1014.3201 1436.5661 1014.301 1436.1864 1012.8132 1436.1864 z M 1019.5529 1442.3622 C 1018.5659 1442.1742 1018.4585 1445.5191 1018.674 1469.6361 C 1018.8498 1489.3108 1019.1696 1497.3953 1019.799 1498.079 C 1021.3184 1499.7293 1021.625 1496.0665 1021.6257 1476.3114 C 1021.6265 1451.9532 1021.0588 1442.6492 1019.5529 1442.3622 z M 1026.0876 1446.7699 L 1026.6369 1474.2826 C 1026.9391 1489.4143 1027.359 1502.0749 1027.57 1502.4164 C 1027.781 1502.7578 1028.1369 1502.8514 1028.3625 1502.6259 C 1028.588 1502.4003 1028.9142 1489.9365 1029.0861 1474.9271 L 1029.3981 1447.6371 L 1027.7429 1447.2035 L 1026.0876 1446.7699 z M 1034.9777 1450.4364 C 1034.4018 1450.4364 1034.4543 1481.1179 1035.0334 1483.2797 L 1035.0349 1483.2797 C 1035.288 1484.2247 1035.874 1484.8719 1036.3371 1484.7181 C 1036.9098 1484.528 1037.2979 1479.2163 1037.5529 1468.1127 C 1037.8922 1453.3395 1037.8083 1451.7223 1036.6652 1451.1117 C 1035.9705 1450.7405 1035.2111 1450.4364 1034.9777 1450.4364 z M 1413.1608 1450.5624 L 1416.1608 1451.5966 C 1422.3752 1453.7375 1430.0132 1453.7097 1437.155 1451.5204 L 1438.8806 1450.9916 L 1438.7941 1465.5272 C 1438.7464 1473.5214 1438.9332 1481.5934 1439.2101 1483.4657 C 1439.8374 1487.7067 1439.6115 1487.9137 1429.5671 1492.2504 C 1417.5796 1497.4261 1414.2383 1498.4996 1413.7863 1497.3217 C 1413.5763 1496.7745 1413.1725 1493.1612 1412.8884 1489.2914 L 1412.3713 1482.2543 L 1415.4621 1482.5502 C 1419.1967 1482.9063 1419.3511 1482.2054 1416.1227 1479.5531 L 1413.6779 1477.5463 L 1413.4186 1464.0536 L 1413.1608 1450.5624 z M 1337.4401 1451.6962 C 1335.111 1451.3626 1331.2457 1453.1418 1321.7795 1457.7401 C 1314.1613 1461.4407 1304.8017 1465.5511 1300.9816 1466.8734 C 1284.2432 1472.6673 1272.681 1478.8982 1267.8483 1484.7284 C 1264.4015 1488.8865 1262.2796 1496.5203 1262.7155 1503.1942 C 1263.2711 1511.7013 1266.1284 1516.0206 1272.3923 1517.8221 C 1280.2434 1520.08 1290.8699 1517.8135 1307.3347 1510.369 C 1323.9112 1502.874 1325.5959 1501.9614 1330.7663 1497.6586 C 1340.3635 1489.6717 1343.0645 1482.6149 1342.6725 1466.5599 C 1342.4581 1457.7762 1342.2339 1456.2803 1340.8517 1454.4266 C 1339.6821 1452.858 1338.8376 1451.8963 1337.4401 1451.6962 z M 1044.5139 1454.8866 C 1043.9492 1455.3407 1043.8643 1458.3134 1043.7082 1468.5917 C 1043.5873 1476.5505 1043.6867 1484.1583 1043.9294 1485.4989 C 1044.9443 1491.1049 1045.5959 1487.0142 1046.0783 1472.0033 C 1046.5519 1457.2636 1046.4909 1455.9958 1045.2595 1455.0946 C 1044.9443 1454.864 1044.7021 1454.7352 1044.5139 1454.8866 z M 1295.3405 1455.0199 C 1295.2121 1454.9625 1294.9403 1455.0109 1294.5275 1455.1693 C 1293.8279 1455.4378 1291.1569 1456.2013 1288.592 1456.8656 C 1286.0271 1457.5298 1283.4217 1458.3947 1282.8029 1458.7875 C 1282.0329 1459.2763 1282.5062 1459.3516 1284.3029 1459.0262 C 1289.131 1458.1519 1294.7705 1456.3475 1295.2878 1455.5106 C 1295.4538 1455.2419 1295.4689 1455.0773 1295.3405 1455.0199 z M 1052.5529 1457.9364 C 1051.189 1457.9364 1051.0529 1458.4359 1051.0529 1463.4457 C 1051.0529 1466.4761 1051.2727 1472.0448 1051.5407 1475.8207 C 1051.8973 1480.8441 1052.2997 1482.6864 1053.0407 1482.6864 C 1053.8501 1482.6864 1054.0529 1480.2015 1054.0529 1470.3114 C 1054.0529 1458.4364 1053.9923 1457.9364 1052.5529 1457.9364 z M 1334.2087 1459.1815 C 1334.9458 1459.5385 1335.3102 1461.1185 1335.7014 1464.3055 C 1336.4565 1470.4595 1336.0882 1470.8456 1323.2824 1477.347 L 1311.6779 1483.2386 L 1311.4553 1487.3959 C 1311.2961 1490.3642 1310.8904 1491.6852 1310.0358 1492.0131 C 1308.278 1492.6877 1308.0272 1492.1266 1307.6848 1486.7499 L 1307.3742 1481.8719 L 1303.9011 1482.3773 C 1299.3106 1483.0457 1294.8029 1484.8654 1294.8029 1486.0497 C 1294.8029 1486.5721 1295.0052 1488.0104 1295.2526 1489.2474 C 1295.694 1491.4541 1295.7431 1491.4768 1297.8776 1490.412 C 1300.8291 1488.9396 1302.6423 1489.4086 1302.8361 1491.6937 C 1302.9741 1493.3224 1302.2521 1493.9357 1297.2111 1496.4735 C 1294.0302 1498.0748 1287.8151 1501.0279 1283.3991 1503.036 C 1278.9832 1505.044 1274.7318 1506.6864 1273.9523 1506.6864 C 1270.9805 1506.6864 1269.8181 1504.1465 1270.2199 1498.5316 C 1270.6573 1492.4187 1272.8709 1488.7166 1278.3015 1485.014 C 1282.8818 1481.8911 1312.1611 1468.8783 1319.2277 1466.8251 C 1324.0791 1465.4154 1325.0257 1465.3288 1325.6027 1466.2406 C 1326.1047 1467.0339 1326.2812 1466.7907 1326.2912 1465.3002 C 1326.2989 1463.9514 1326.7989 1463.1299 1327.8073 1462.8099 C 1328.6345 1462.5474 1330.3525 1461.4576 1331.6247 1460.3871 C 1332.3178 1459.8038 1332.8748 1459.4028 1333.3327 1459.2181 C 1333.6761 1459.0797 1333.963 1459.0625 1334.2087 1459.1815 z M 1277.9675 1459.4364 C 1276.5238 1459.4364 1260.9642 1461.9406 1254.6779 1463.1849 C 1250.5529 1464.0013 1243.0029 1465.1641 1237.8996 1465.7689 C 1232.7963 1466.3737 1228.4518 1467.0384 1228.2448 1467.2455 C 1228.0375 1467.4525 1228.0724 1468.1553 1228.3225 1468.807 C 1228.8494 1470.1801 1231.6473 1469.9753 1244.5529 1467.6234 C 1248.8842 1466.834 1254.0552 1466.1885 1256.0446 1466.1879 C 1259.8203 1466.1867 1270.7212 1463.7702 1274.9792 1461.9911 C 1277.1753 1461.0735 1279.0907 1459.4364 1277.9675 1459.4364 z M 1506.9929 1462.451 C 1507.49 1462.5289 1507.7965 1462.7055 1507.7897 1462.9989 C 1507.7652 1464.0499 1500.3414 1468.1812 1474.8029 1481.3534 C 1468.4092 1484.6512 1461.7925 1488.1598 1460.0988 1489.1508 C 1458.4052 1490.1417 1454.5487 1491.7933 1451.5295 1492.8202 C 1445.4509 1494.8876 1444.8029 1494.9995 1444.8029 1493.9935 C 1444.8029 1491.7336 1449.1584 1488.585 1456.6198 1485.4491 C 1466.0493 1481.486 1497.4048 1466.2047 1500.6779 1463.9774 C 1502.2939 1462.8778 1505.5014 1462.2176 1506.9929 1462.451 z M 1069.2404 1463.3768 C 1068.5216 1463.1348 1068.3029 1465.3859 1068.3029 1473.0243 C 1068.3029 1480.9933 1068.4905 1482.799 1069.2404 1482.0507 C 1069.8829 1481.4095 1070.1779 1478.3747 1070.1779 1472.4047 C 1070.1779 1466.1041 1069.9185 1463.6052 1069.2404 1463.3768 z M 1060.8029 1464.3114 C 1059.9718 1464.8251 1059.7614 1471.6459 1060.5524 1472.4369 C 1061.4614 1473.3457 1061.5529 1472.9765 1061.5529 1468.3925 C 1061.5529 1465.554 1061.2714 1464.0219 1060.8029 1464.3114 z M 1077.6779 1466.1864 C 1076.7156 1466.1864 1076.5456 1468.4369 1076.5046 1481.7489 C 1076.4782 1490.3083 1076.1807 1501.3614 1075.8425 1506.3114 C 1075.5043 1511.2614 1075.4034 1516.4205 1075.6183 1517.7767 C 1076.2815 1521.9626 1077.6541 1519.9783 1078.1423 1514.1278 C 1078.3977 1511.0664 1078.6508 1499.027 1078.7048 1487.3739 C 1078.7898 1468.997 1078.6537 1466.1864 1077.6779 1466.1864 z M 1223.4035 1467.4828 C 1221.8001 1467.6279 1220.5529 1468.3196 1220.5529 1469.2245 C 1220.5529 1469.6165 1222.0717 1469.9364 1223.9279 1469.9364 C 1227.844 1469.9364 1228.7486 1468.0692 1225.0925 1467.5326 C 1224.5117 1467.4474 1223.938 1467.4344 1223.4035 1467.4828 z M 1512.3132 1467.4901 L 1519.6535 1468.7133 C 1523.6908 1469.3859 1527.8127 1469.9364 1528.8132 1469.9364 C 1529.9793 1469.9364 1527.6785 1471.4515 1522.4045 1474.1566 C 1505.5755 1482.7884 1485.7404 1493.3729 1483.0251 1495.1698 C 1481.3979 1496.2467 1478.8493 1497.1212 1476.9504 1497.2557 C 1473.0689 1497.5306 1465.9112 1496.596 1465.0178 1495.6971 C 1464.0439 1494.717 1469.3018 1490.7232 1476.716 1486.8129 C 1483.9346 1483.0057 1486.9973 1481.327 1498.0529 1475.1219 C 1501.9717 1472.9224 1506.7828 1470.3055 1508.7448 1469.3065 L 1512.3132 1467.4901 z M 1087.2404 1469.3724 C 1086.1585 1469.0144 1085.9577 1476.3159 1086.8303 1484.264 L 1087.3561 1489.0614 L 1087.9787 1484.9364 C 1088.8561 1479.1256 1088.412 1469.76 1087.2404 1469.3724 z M 1537.0471 1473.5048 L 1539.6149 1475.4618 C 1541.0267 1476.5386 1542.5191 1478.5199 1542.9328 1479.8651 C 1543.8548 1482.8623 1544.6909 1593.2512 1543.923 1610.5614 C 1543.456 1621.0902 1543.171 1622.995 1541.6013 1626.099 C 1539.0542 1631.1355 1537.2226 1632.5616 1525.4279 1638.6952 C 1508.6792 1647.405 1500.003 1652.3015 1475.5529 1666.8436 C 1467.837 1671.4327 1452.3915 1679.141 1444.6052 1682.2875 C 1441.4528 1683.5615 1438.6818 1683.9277 1430.5529 1684.1464 C 1420.4991 1684.417 1416.5895 1683.8349 1412.8986 1681.514 C 1411.6329 1680.7181 1411.8465 1680.649 1414.4279 1681.0233 C 1427.2605 1682.8835 1437.562 1682.0619 1446.6237 1678.454 C 1455.2223 1675.0305 1473.8198 1665.0893 1482.3029 1659.3832 C 1502.25 1645.9659 1517.8816 1623.2631 1524.423 1598.2069 C 1526.3357 1590.8806 1526.7418 1587.6728 1527.0905 1577.1864 C 1527.7282 1558.0105 1525.5308 1545.7241 1519.1027 1532.535 C 1511.9208 1517.7994 1505.465 1511.7125 1487.635 1502.8588 L 1482.842 1500.4784 L 1484.635 1499.0985 C 1485.6215 1498.3401 1486.7654 1497.7077 1487.1779 1497.6937 C 1487.5904 1497.6793 1489.9529 1496.6226 1492.4279 1495.3456 C 1503.9214 1489.4152 1529.5788 1476.705 1533.1125 1475.1908 L 1537.0471 1473.5048 z M 1335.7116 1479.1547 C 1336.5534 1478.8441 1336.8029 1479.2019 1336.8029 1480.0995 C 1336.8029 1483.3625 1330.4203 1491.4541 1324.0822 1496.2274 C 1317.7854 1500.9696 1301.996 1507.9971 1290.6779 1511.0941 C 1280.4317 1513.8977 1277.4542 1514.4018 1276.1686 1513.5521 C 1275.4218 1513.0586 1275.7141 1512.7477 1277.2936 1512.3553 C 1281.8881 1511.2138 1316.1392 1497.4401 1318.1965 1495.9066 C 1319.2991 1495.0847 1320.0264 1492.8564 1320.2414 1489.64 C 1320.2754 1489.1328 1321.7373 1487.992 1323.4904 1487.1058 C 1325.2435 1486.2196 1328.6524 1484.0196 1331.0651 1482.2162 C 1333.4361 1480.4439 1334.8698 1479.4652 1335.7116 1479.1547 z M 1531.5964 1481.3446 C 1527.2693 1481.5625 1524.3058 1485.4973 1524.3058 1491.433 C 1524.3034 1494.8364 1524.5826 1495.5384 1526.6115 1497.2455 C 1529.5078 1499.6824 1531.4607 1499.6919 1534.9963 1497.2894 C 1542.3857 1492.2682 1541.5244 1482.9836 1533.53 1481.4838 C 1532.8608 1481.3582 1532.2145 1481.3135 1531.5964 1481.3446 z M 1532.6642 1486.0028 C 1533.1077 1486.0775 1533.5447 1486.3519 1534.0881 1486.8436 C 1535.361 1487.9956 1535.3935 1488.3191 1534.4279 1490.1864 C 1533.8397 1491.3238 1532.812 1492.4644 1532.1442 1492.7206 C 1530.297 1493.4294 1529.7545 1493.2937 1529.2585 1492.0013 C 1528.5552 1490.1685 1529.567 1487.2325 1531.2023 1486.3573 C 1531.7712 1486.0528 1532.2208 1485.9282 1532.6642 1486.0028 z M 1442.6701 1493.6332 C 1443.5886 1494.2009 1442.4047 1496.8625 1440.7878 1497.8636 C 1439.9027 1498.4116 1435.9717 1500.3496 1432.0529 1502.1703 C 1424.8171 1505.5322 1393.5677 1521.5576 1383.3029 1527.1708 C 1380.2092 1528.8626 1374.7407 1531.7801 1371.1506 1533.6542 C 1341.511 1549.1259 1338.0404 1551.2001 1332.5256 1556.7299 C 1328.7796 1560.486 1326.8857 1563.026 1326.3513 1565.0106 C 1325.3983 1568.5497 1325.0539 1579.9611 1325.8312 1582.2489 C 1326.5303 1584.3066 1325.7569 1584.3367 1318.8029 1582.5155 L 1313.9279 1581.2382 L 1313.717 1572.5121 L 1313.506 1563.7875 L 1319.6086 1560.6117 C 1325.5576 1557.5167 1331.4781 1552.8612 1330.592 1551.975 C 1329.5445 1550.9276 1313.6016 1557.6555 1310.3654 1560.5106 C 1309.2425 1561.5013 1309.0529 1563.0728 1309.0529 1571.39 C 1309.0529 1581.1053 1309.0519 1581.1115 1307.3654 1580.6595 C 1306.4373 1580.4108 1305.3996 1580.2067 1305.0583 1580.1967 C 1304.7173 1580.1911 1304.5482 1575.6104 1304.6833 1570.0175 C 1304.9204 1560.2023 1304.9932 1559.7967 1306.8029 1558.3661 C 1310.5102 1555.4355 1316.0281 1553.0812 1322.4211 1551.7025 C 1326.0002 1550.9307 1330.9529 1549.402 1333.4279 1548.3055 C 1340.809 1545.0355 1365.2281 1532.6147 1371.6779 1528.8495 C 1374.9779 1526.923 1380.8842 1523.7981 1384.8029 1521.9061 C 1388.7217 1520.0141 1394.1885 1516.9973 1396.9509 1515.2015 C 1399.7133 1513.4058 1402.155 1511.9364 1402.3767 1511.9364 C 1402.9225 1511.9364 1409.853 1508.4931 1418.9279 1503.7128 C 1427.0506 1499.4341 1441.8735 1493.1409 1442.6701 1493.6332 z M 1460.7141 1497.9706 C 1462.1604 1497.9094 1463.5374 1497.9511 1464.7834 1498.1068 L 1468.8776 1498.6195 L 1463.6628 1500.3744 C 1460.7945 1501.3403 1457.1487 1502.874 1455.5622 1503.7816 C 1453.9756 1504.6892 1451.6654 1505.927 1450.4279 1506.5326 C 1447.9926 1507.7243 1440.9133 1512.0106 1440.3029 1512.663 C 1440.0967 1512.8834 1439.0842 1513.4978 1438.0529 1514.0282 C 1437.0217 1514.5586 1434.8279 1516.1806 1433.1779 1517.6317 C 1430.6948 1519.8156 1430.5656 1520.0481 1432.4279 1518.9838 C 1434.1515 1517.9989 1433.9761 1518.277 1431.6779 1520.1718 C 1418.4186 1531.1033 1402.5471 1552.0582 1395.2106 1568.3182 C 1386.769 1587.0277 1383.9053 1598.8297 1383.8713 1615.0614 C 1383.8054 1646.2402 1391.4645 1667.0614 1408.1437 1681.0555 C 1415.1857 1686.9638 1417.1745 1687.8798 1425.9372 1689.244 L 1431.6779 1690.1376 L 1428.3029 1692.0419 C 1426.4467 1693.0896 1420.5404 1696.4214 1415.1779 1699.4452 C 1405.0985 1705.1287 1399.2906 1708.5032 1385.1779 1716.8739 C 1380.6404 1719.5653 1373.5529 1723.6111 1369.4279 1725.8651 C 1365.3029 1728.1191 1359.9227 1731.195 1357.4719 1732.7001 C 1355.0212 1734.2053 1352.5241 1735.4364 1351.9216 1735.4364 C 1350.9663 1735.4364 1350.8778 1727.3675 1351.2331 1672.4335 C 1351.62 1612.6031 1351.5719 1609.3457 1350.2927 1607.7196 C 1349.0197 1606.1011 1349.0009 1605.1375 1349.9484 1590.1576 C 1351.0312 1573.0393 1351.3458 1571.8112 1355.7272 1567.5272 C 1358.5199 1564.7966 1378.1606 1553.6061 1397.1603 1543.9198 C 1406.0162 1539.405 1410.3209 1536.7195 1413.6603 1533.6263 C 1416.1453 1531.3246 1420.1318 1527.8652 1422.5197 1525.9388 C 1424.9076 1524.0124 1426.664 1522.4364 1426.4221 1522.4364 C 1425.28 1522.4364 1410.1443 1529.9939 1406.1647 1532.5511 C 1403.6975 1534.1366 1394.5904 1539.1242 1385.9279 1543.6342 C 1357.4842 1558.4426 1351.9022 1562.1885 1347.1696 1569.6454 L 1345.0529 1572.9808 L 1345.0529 1587.8329 C 1345.0529 1598.4677 1344.8093 1602.6864 1344.196 1602.6864 C 1343.7248 1602.6864 1341.0775 1602.013 1338.3117 1601.1893 L 1333.2829 1599.6908 L 1332.7966 1591.2518 C 1332.5291 1586.6099 1332.3073 1578.8961 1332.3073 1574.1102 C 1332.3025 1561.9151 1332.905 1561.1342 1349.5529 1551.7787 C 1356.0558 1548.1243 1380.4946 1535.0389 1394.5529 1527.6849 C 1419.9475 1514.4008 1437.946 1505.3415 1447.5261 1501.0204 C 1451.4164 1499.2657 1456.375 1498.154 1460.7141 1497.9706 z M 1476.9709 1503.1195 C 1486.143 1503.5197 1491.1264 1504.8501 1493.9279 1507.6473 L 1495.4279 1509.1459 L 1493.9279 1508.5643 C 1493.1029 1508.2451 1491.0779 1507.4564 1489.4279 1506.8109 C 1487.2123 1505.9441 1483.5845 1505.6303 1475.5529 1505.6083 C 1463.6652 1505.5759 1458.7711 1506.4906 1448.9279 1510.5902 C 1441.4802 1513.692 1441.1254 1513.7912 1443.9826 1511.9569 C 1454.7997 1505.0125 1463.9813 1502.5527 1476.9709 1503.1195 z M 1475.2424 1511.9364 L 1479.9328 1511.9364 L 1479.2707 1514.3739 C 1478.907 1515.7145 1478.2571 1522.7177 1477.8264 1529.9364 C 1476.7796 1547.4799 1475.9758 1550.8921 1475.2629 1540.8114 C 1474.2048 1525.8491 1473.2952 1519.8772 1471.5261 1516.2562 C 1470.5707 1514.3006 1469.9611 1512.5287 1470.1711 1512.3187 C 1470.3812 1512.1087 1472.6631 1511.9364 1475.2424 1511.9364 z M 1460.7184 1515.8329 C 1463.3734 1516.0303 1463.9739 1516.4179 1465.1423 1518.6864 C 1468.0426 1524.3174 1469.8707 1547.057 1468.1862 1556.5541 C 1467.6229 1559.7298 1466.5948 1560.3342 1463.7404 1559.1718 C 1462.5321 1558.6797 1462.0529 1557.8629 1462.0529 1556.2933 C 1462.0529 1553.1413 1458.5297 1539.98 1456.4836 1535.4896 C 1455.5256 1533.3873 1453.3607 1529.3771 1451.673 1526.579 C 1449.3709 1522.7613 1448.7775 1521.1672 1449.2985 1520.1937 C 1450.3831 1518.1672 1457.1847 1515.5703 1460.7184 1515.8329 z M 1487.0593 1516.9462 C 1487.2973 1516.9412 1487.5767 1517.004 1487.9074 1517.1395 C 1488.5689 1517.4106 1489.4352 1517.9709 1490.5851 1518.8534 C 1496.5247 1523.4115 1496.9279 1524.3985 1496.9279 1534.3719 L 1496.9279 1543.1976 L 1493.2892 1550.5306 C 1490.4972 1556.1573 1488.336 1559.2381 1484.0021 1563.7743 C 1480.8956 1567.0258 1477.8046 1569.6864 1477.1335 1569.6864 C 1475.8145 1569.6864 1474.0529 1567.3697 1474.0529 1565.6346 C 1474.0529 1565.0445 1475.7428 1561.0742 1477.8073 1556.8119 C 1482.3017 1547.5329 1484.3407 1539.052 1485.0363 1526.7445 C 1485.3476 1521.2381 1485.8816 1517.6404 1486.4587 1517.1615 C 1486.6245 1517.0238 1486.8212 1516.9511 1487.0593 1516.9462 z M 1508.7932 1521.9457 C 1508.9731 1521.7657 1510.742 1524.3844 1512.7233 1527.764 C 1522.6684 1544.7277 1525.3771 1569.5227 1520.0842 1595.1556 C 1516.6776 1611.6539 1511.0217 1623.2761 1499.4504 1637.5614 C 1493.8906 1644.4252 1489.8029 1648.3496 1489.8029 1646.8221 C 1489.8029 1645.0718 1485.8253 1639.5096 1483.4675 1637.9628 L 1481.3874 1636.5975 L 1487.7228 1636.3295 C 1495.3632 1636.0064 1497.6929 1634.6678 1504.5832 1626.6425 C 1510.3471 1619.9289 1512.9584 1615.1192 1513.1379 1610.8866 C 1513.303 1606.991 1516.027 1593.4742 1518.7951 1582.8114 C 1521.5615 1572.1558 1521.8334 1564.5733 1519.841 1553.6976 C 1517.9712 1543.4912 1513.923 1531.1964 1510.6945 1525.9169 C 1509.4689 1523.9126 1508.6132 1522.1256 1508.7932 1521.9457 z M 1440.3454 1522.4364 C 1441.3096 1522.4364 1449.1294 1534.3317 1451.0827 1538.7694 C 1453.3422 1543.903 1453.5864 1547.3372 1451.4313 1543.6781 C 1449.2884 1540.0395 1442.5034 1532.6879 1438.507 1529.6742 C 1436.4013 1528.0862 1434.567 1526.6826 1434.4318 1526.5541 C 1434.1486 1526.285 1439.6756 1522.4364 1440.3454 1522.4364 z M 1012.5803 1523.3402 C 1011.7083 1523.1572 1011.458 1526.3634 1011.1125 1542.0902 C 1010.8381 1554.5825 1010.958 1561.3816 1011.4655 1561.9989 C 1011.8894 1562.5145 1012.5332 1562.9364 1012.8952 1562.9364 C 1013.2571 1562.9364 1013.5529 1554.3302 1013.5529 1543.8114 C 1013.5529 1533.2927 1013.5705 1524.4333 1013.5925 1524.1239 C 1013.6143 1523.8145 1013.1587 1523.4617 1012.5803 1523.3402 z M 1502.2453 1523.6801 C 1502.4716 1523.7989 1502.9152 1524.2522 1503.6003 1525.0526 C 1505.408 1527.1645 1507.1273 1530.7765 1513.3312 1545.4989 L 1515.9387 1551.6864 L 1512.0583 1551.6981 C 1509.9241 1551.7044 1507.7928 1551.9575 1507.3225 1552.2606 C 1506.8521 1552.5636 1505.2672 1554.8635 1503.7995 1557.3715 C 1500.8251 1562.4542 1493.1261 1570.0946 1486.6682 1574.3739 C 1479.8328 1578.9031 1478.9759 1577.9507 1484.6423 1572.1239 C 1491.8691 1564.6926 1494.4446 1561.1574 1498.7165 1552.8114 C 1503.1513 1544.1471 1504.3589 1538.3728 1503.3439 1530.6864 C 1502.9898 1528.0052 1502.4709 1525.1364 1502.1911 1524.3114 C 1502.0093 1523.7754 1502.019 1523.5612 1502.2453 1523.6801 z M 1020.1008 1529.9364 C 1020.0127 1529.9089 1019.9168 1529.9462 1019.8122 1530.0331 C 1019.0154 1530.6944 1018.8029 1534.8734 1018.8029 1549.9037 C 1018.8029 1565.4672 1018.9899 1568.9364 1019.8254 1568.9364 C 1021.4593 1568.9364 1021.8995 1561.8965 1021.3356 1544.7972 C 1020.9621 1533.4699 1020.717 1530.129 1020.1008 1529.9364 z M 1362.8112 1530.1957 C 1363.011 1530.3955 1361.8823 1531.1496 1360.3019 1531.8729 C 1358.7216 1532.5963 1357.1748 1533.32 1356.8654 1533.4813 C 1356.556 1533.6425 1356.3029 1533.5937 1356.3029 1533.3715 C 1356.3029 1532.7548 1362.3968 1529.7812 1362.8112 1530.1957 z M 1428.9841 1532.1864 C 1430.8762 1532.1864 1436.4986 1536.0478 1440.0436 1539.7816 C 1443.6833 1543.615 1454.5587 1557.4841 1454.5427 1558.2723 C 1454.5368 1558.5689 1452.8495 1559.7395 1450.7927 1560.8739 C 1448.7359 1562.0083 1446.9424 1562.9364 1446.8083 1562.9364 C 1446.6741 1562.9364 1445.8016 1562.1246 1444.8688 1561.1317 C 1441.1239 1557.1454 1429.7554 1552.4828 1420.1115 1550.9789 C 1414.2081 1550.0583 1413.5848 1549.5173 1415.0856 1546.6151 C 1416.8001 1543.2996 1427.5049 1532.1864 1428.9841 1532.1864 z M 1028.2658 1532.9364 C 1026.8148 1532.9364 1026.3252 1535.3335 1026.3132 1542.4989 C 1026.3054 1547.2154 1026.5449 1548.6864 1027.321 1548.6864 C 1028.0158 1548.6864 1028.4921 1547.2226 1028.821 1544.0765 C 1029.6131 1536.4978 1029.436 1532.9364 1028.2658 1532.9364 z M 1350.3029 1536.2733 C 1350.3029 1536.4795 1349.2904 1537.1715 1348.0529 1537.8114 C 1346.8154 1538.4513 1345.8029 1538.8058 1345.8029 1538.5995 C 1345.8029 1538.3933 1346.8154 1537.7013 1348.0529 1537.0614 C 1349.2904 1536.4215 1350.3029 1536.067 1350.3029 1536.2733 z M 1035.8332 1539.1078 C 1035.7486 1539.06 1035.5972 1539.5177 1035.3029 1540.4364 C 1034.9727 1541.4677 1034.6743 1542.9864 1034.6393 1543.8114 C 1034.5871 1545.0471 1034.704 1545.1132 1035.3029 1544.1864 C 1035.7028 1543.5677 1036.0015 1542.0489 1035.9665 1540.8114 C 1035.9355 1539.709 1035.9178 1539.1556 1035.8332 1539.1078 z M 1344.6691 1539.2924 C 1344.7949 1539.3449 1344.8049 1539.4826 1344.6735 1539.6952 C 1344.4215 1540.103 1343.8971 1540.4364 1343.509 1540.4364 C 1342.4301 1540.4364 1342.6682 1539.8994 1343.9675 1539.4008 C 1344.3013 1539.2727 1344.5433 1539.2398 1344.6691 1539.2924 z M 1511.777 1557.4945 L 1513.2067 1559.2772 C 1514.4209 1560.7912 1514.5793 1561.9122 1514.2556 1566.6864 C 1513.7026 1574.8438 1511.3458 1581.8027 1507.9142 1585.41 C 1504.6527 1588.8389 1498.1246 1592.0957 1489.1057 1594.7953 C 1481.8865 1596.9561 1478.5529 1597.2119 1478.5529 1595.6053 C 1478.5529 1595.0109 1478.8904 1594.3163 1479.3029 1594.0614 C 1479.7154 1593.8065 1480.0529 1591.5966 1480.0529 1589.1512 L 1480.0529 1584.7054 L 1485.1154 1582.1552 C 1494.3906 1577.4843 1501.8873 1570.8295 1509.6193 1560.4022 L 1511.777 1557.4945 z M 1409.4665 1557.6864 C 1413.7234 1557.6864 1433.6385 1565.8413 1436.7697 1568.8661 C 1438.0572 1570.1099 1438.0385 1570.3198 1436.298 1574.0765 L 1434.4846 1577.9921 L 1422.9562 1578.2162 C 1413.0206 1578.41 1410.4958 1578.7208 1404.6779 1580.4618 C 1400.9654 1581.5727 1397.4604 1582.6471 1396.8893 1582.8495 C 1395.021 1583.5115 1396.4537 1577.5721 1399.7839 1570.8495 C 1403.3887 1563.5728 1407.7191 1557.6864 1409.4665 1557.6864 z M 1457.3493 1565.9056 C 1459.2246 1565.8115 1461.1966 1566.0522 1463.2907 1566.6161 C 1469.5079 1568.2902 1474.8029 1577.266 1474.8029 1586.1307 C 1474.8029 1591.2815 1471.8064 1602.26 1469.1735 1606.7528 C 1466.5079 1611.3011 1461.3984 1616.313 1457.4533 1618.2489 C 1450.2851 1621.7664 1442.5598 1619.8997 1438.5231 1613.6742 C 1435.5894 1609.1498 1434.8305 1605.452 1435.2668 1597.8114 C 1435.7671 1589.0497 1437.8987 1582.5148 1442.342 1576.1273 C 1446.962 1569.4856 1451.7234 1566.1879 1457.3493 1565.9056 z M 1027.5231 1566.1503 C 1026.6045 1566.4506 1025.9519 1571.4394 1026.6047 1573.1405 C 1027.364 1575.1191 1028.3571 1574.1813 1028.7712 1571.0941 C 1029.24 1567.5987 1028.7705 1565.7412 1027.5231 1566.1503 z M 1364.4548 1566.6864 C 1361.3301 1566.6864 1359.3506 1568.5073 1357.1159 1573.4364 C 1354.4655 1579.2828 1355.2893 1583.2678 1359.5168 1585.0453 C 1367.2142 1588.2818 1375.3329 1574.5783 1369.1994 1568.702 C 1367.7306 1567.2948 1366.2987 1566.6864 1364.4548 1566.6864 z M 1364.5793 1571.2069 C 1366.0162 1571.2038 1367.1158 1573.0574 1366.3957 1575.9266 C 1365.7079 1578.6669 1362.8395 1581.1727 1361.6979 1580.0311 C 1360.4721 1578.8053 1360.5753 1576.0523 1361.947 1573.3998 C 1362.7331 1571.8795 1363.7171 1571.2088 1364.5793 1571.2069 z M 1460.0007 1571.39 C 1457.7068 1571.0023 1455.2295 1571.4513 1452.5725 1572.7377 C 1446.3778 1575.7364 1442.0758 1582.639 1439.7653 1593.2865 C 1438.7261 1598.0749 1438.66 1599.8752 1439.3669 1604.0018 C 1440.3832 1609.9352 1441.9155 1612.2488 1446.319 1614.4989 C 1448.1354 1615.427 1450.0024 1616.1864 1450.4689 1616.1864 C 1453.5587 1616.1864 1463.942 1607.7603 1466.1765 1603.4393 C 1467.6361 1600.6166 1469.3293 1593.3225 1469.8708 1587.5194 C 1470.3877 1581.98 1469.3367 1578.2822 1466.3303 1575.0624 C 1464.4061 1573.0015 1462.2945 1571.7778 1460.0007 1571.39 z M 1458.7658 1575.1561 C 1459.4829 1575.1596 1460.0709 1575.4533 1461.0656 1576.0409 C 1463.5443 1577.5051 1465.9368 1580.9083 1467.215 1584.7889 C 1467.9544 1587.0337 1467.8893 1588.4261 1466.8459 1592.6639 C 1465.1419 1599.5847 1462.895 1603.809 1458.4846 1608.3876 C 1454.3265 1612.7044 1451.8552 1613.5346 1448.4035 1611.7728 C 1443.3346 1609.1855 1441.6134 1601.7732 1443.7277 1591.6415 C 1444.9928 1585.5795 1445.3904 1584.7537 1448.78 1581.1561 C 1450.9441 1578.8592 1453.7927 1576.7412 1455.6955 1576.0145 C 1457.2028 1575.439 1458.0487 1575.1527 1458.7658 1575.1561 z M 1294.8351 1584.0389 C 1295.8152 1583.9119 1296.8683 1584.0987 1298.7097 1584.5062 C 1300.8927 1584.9893 1307.5717 1586.253 1313.5529 1587.3143 C 1328.8265 1590.0244 1329.0176 1590.1215 1330.6623 1596.1239 C 1331.552 1599.371 1331.5275 1599.3775 1327.0529 1597.0995 C 1323.8213 1595.4543 1309.7341 1592.1191 1294.9904 1589.5087 C 1291.1748 1588.8332 1288.0529 1588.0551 1288.0529 1587.7802 C 1288.0529 1587.5051 1289.5584 1586.4585 1291.3972 1585.454 C 1292.9483 1584.6066 1293.8551 1584.166 1294.8351 1584.0389 z M 1424.2643 1585.3602 C 1426.467 1585.3658 1428.1123 1585.5761 1428.8376 1586.037 C 1429.4897 1586.4514 1429.5959 1587.9482 1429.2126 1591.3236 L 1428.6779 1596.0331 L 1423.8029 1597.9857 C 1414.9575 1601.5302 1407.0175 1606.8934 1397.739 1615.5887 C 1394.7471 1618.3925 1391.9823 1620.6864 1391.5954 1620.6864 C 1389.3989 1620.6864 1388.9177 1614.0862 1390.4162 1604.5043 C 1392.2931 1592.5025 1392.532 1592.1011 1399.239 1589.6552 C 1406.0375 1587.1755 1417.6565 1585.3435 1424.2643 1585.3602 z M 1190.4357 1587.8226 C 1189.2307 1588.0012 1188.3813 1589.2082 1187.1003 1592.5614 C 1186.1547 1595.0364 1185.3635 1597.652 1185.3425 1598.3739 C 1185.2631 1601.0673 1186.8647 1599.5278 1189.4191 1594.4554 C 1192.4913 1588.3548 1192.622 1587.4986 1190.4357 1587.8226 z M 1179.8361 1587.9135 C 1179.665 1587.8741 1179.3682 1588.0707 1178.8693 1588.4847 C 1177.7356 1589.4255 1174.0529 1596.0642 1174.0529 1597.1669 C 1174.0529 1597.4588 1174.9292 1596.8794 1175.9997 1595.8793 C 1178.2278 1593.7978 1180.0529 1590.5907 1180.0529 1588.7572 C 1180.0529 1588.2286 1180.0073 1587.9528 1179.8361 1587.9135 z M 1004.9733 1588.8246 C 1004.6903 1588.7998 1004.5529 1588.9139 1004.5529 1589.1615 C 1004.5529 1591.9872 1019.551 1602.235 1032.6354 1608.3495 C 1041.2287 1612.3652 1057.3604 1617.8354 1067.9279 1620.3187 C 1075.6972 1622.1445 1081.8029 1622.6757 1081.8029 1621.5243 C 1081.8029 1620.5573 1074.6885 1617.837 1069.0529 1616.6493 C 1048.6899 1612.3578 1024.9284 1602.5234 1011.6779 1592.9027 C 1007.9827 1590.2198 1005.8225 1588.8991 1004.9733 1588.8246 z M 1512.2458 1590.6864 C 1512.5992 1590.6864 1512.4374 1592.2895 1511.8854 1594.2489 C 1511.3334 1596.2083 1510.5132 1599.2458 1510.0632 1600.9989 L 1509.2458 1604.1864 L 1498.5861 1604.0736 C 1481.3324 1603.8917 1478.3697 1603.118 1487.5529 1601.1893 C 1495.8579 1599.445 1501.3307 1597.3259 1507.0002 1593.6615 C 1509.5321 1592.0251 1511.8924 1590.6864 1512.2458 1590.6864 z M 1282.0134 1590.8739 C 1284.1209 1591.1 1286.6532 1591.8559 1290.1447 1593.1971 C 1293.7385 1594.5777 1298.3943 1595.9053 1300.4924 1596.1473 C 1304.3137 1596.588 1311.3029 1599.4573 1311.3029 1600.5858 C 1311.3029 1601.8697 1303.3388 1599.9916 1300.6433 1598.0721 C 1298.7783 1596.7441 1298.4522 1596.7182 1296.8508 1597.7675 C 1295.2294 1598.8299 1294.7111 1598.7529 1289.8884 1596.7289 C 1287.0227 1595.5261 1282.3154 1594.1265 1279.4279 1593.619 C 1274.2186 1592.7035 1274.1953 1592.6885 1276.4279 1591.725 C 1278.2219 1590.9507 1279.9058 1590.6478 1282.0134 1590.8739 z M 1200.2575 1592.5834 C 1199.7792 1592.3943 1199.1395 1592.3918 1198.4953 1592.639 C 1197.2797 1593.1055 1196.8557 1595.9888 1197.8552 1596.9882 C 1198.4144 1597.5475 1201.0529 1594.7915 1201.0529 1593.6483 C 1201.0529 1593.1491 1200.7358 1592.7725 1200.2575 1592.5834 z M 1275.6486 1596.0463 C 1277.6256 1596.2903 1280.3603 1597.3891 1283.9997 1599.3729 C 1290.6553 1603.0009 1297.5001 1604.7082 1306.8776 1605.0785 C 1311.4138 1605.2577 1311.5435 1605.2068 1313.9558 1602.3334 L 1316.4123 1599.4081 L 1319.5134 1600.3368 C 1322.7025 1601.2923 1324.1176 1603.2504 1325.1516 1608.1429 C 1325.5898 1610.2168 1327.5372 1611.4464 1334.4255 1613.995 L 1336.923 1614.9178 L 1336.466 1684.7396 C 1336.2147 1723.1416 1335.8393 1756.1566 1335.6325 1758.1049 C 1335.2796 1761.4293 1335.3772 1761.6776 1337.2101 1762.1376 C 1338.3517 1762.4241 1339.5287 1762.2605 1340.0446 1761.745 C 1341.0592 1760.7313 1342.2532 1650.5371 1341.5065 1626.7963 C 1340.9961 1610.5674 1341.3032 1611.1565 1332.0407 1608.6703 C 1328.6788 1607.768 1325.7592 1606.8518 1325.5529 1606.6356 C 1325.3467 1606.419 1327.5404 1606.4042 1330.4279 1606.6019 C 1336.6131 1607.0255 1340.8707 1608.955 1343.5529 1612.5492 L 1345.4279 1615.0614 L 1345.4279 1700.4559 L 1345.4279 1785.8505 L 1342.7956 1788.2059 C 1341.3481 1789.5015 1339.3231 1791.1111 1338.2956 1791.7831 C 1336.4433 1792.9946 1336.4279 1793.0991 1336.4279 1804.1581 C 1336.4279 1814.7617 1336.354 1815.3193 1334.9279 1815.4608 C 1334.1029 1815.5426 1332.7529 1815.3395 1331.9279 1815.0096 C 1330.5214 1814.4472 1330.4265 1813.7094 1330.4265 1803.162 C 1330.4253 1794.7025 1330.1677 1791.6048 1329.3893 1790.6669 C 1326.7115 1787.4403 1315.5925 1784.8465 1313.4826 1786.9564 C 1312.9601 1787.4789 1312.5959 1791.2723 1312.5319 1796.869 L 1312.4279 1805.9364 L 1310.4269 1805.9364 C 1306.0725 1805.9375 1306.0542 1805.8917 1306.0412 1794.7948 C 1306.0349 1789.167 1305.7818 1784.2085 1305.4787 1783.7762 C 1305.1757 1783.3438 1303.8725 1782.2536 1302.5827 1781.3534 C 1298.7556 1778.6825 1297.8029 1775.6921 1297.8029 1766.3563 L 1297.8029 1758.1283 L 1300.7121 1757.6639 C 1304.1692 1757.1111 1308.7365 1752.8261 1309.7385 1749.1971 C 1310.0996 1747.8893 1310.2167 1743.9672 1309.9992 1740.4799 L 1309.6037 1734.1385 L 1311.7775 1732.8553 C 1312.9729 1732.1491 1314.7897 1730.332 1315.8146 1728.8168 L 1317.6779 1726.0614 L 1317.6779 1704.934 L 1317.6779 1683.8065 L 1315.8176 1681.8275 C 1314.7948 1680.7392 1311.5343 1678.6509 1308.5725 1677.1869 C 1303.1043 1674.4844 1299.988 1674.1667 1294.9977 1675.8055 L 1293.3176 1676.3578 L 1293.1227 1642.3851 L 1292.9279 1608.4125 L 1288.9392 1605.6483 C 1286.7455 1604.1274 1283.8765 1601.8473 1282.5642 1600.5814 C 1281.2516 1599.3154 1279.2198 1597.9173 1278.0495 1597.476 C 1276.1145 1596.7465 1275.6123 1596.9467 1272.5065 1599.6805 C 1268.8469 1602.9019 1264.9544 1603.6846 1262.2892 1601.7357 C 1261.1578 1600.9084 1261.6685 1600.6112 1266.2194 1599.4388 C 1269.0958 1598.6978 1271.8508 1597.6069 1272.3425 1597.0145 C 1272.7364 1596.5398 1273.2574 1596.2292 1273.9186 1596.0858 C 1274.4146 1595.9783 1274.9896 1595.9649 1275.6486 1596.0463 z M 1425.9328 1604.5057 C 1426.5484 1604.4604 1426.9465 1604.7622 1427.6247 1605.3759 C 1428.4104 1606.087 1429.0529 1606.9577 1429.0529 1607.3109 C 1429.0529 1608.0933 1416.9665 1628.8113 1413.9269 1633.2386 C 1411.1295 1637.3134 1407.6955 1645.3926 1405.9846 1651.9242 C 1404.5421 1657.4309 1403.5461 1658.255 1400.7272 1656.2762 C 1397.3588 1653.9117 1392.9622 1642.3394 1392.0056 1633.3177 L 1391.5558 1629.0741 L 1396.9919 1624.035 C 1405.7721 1615.8959 1413.3868 1610.5217 1422.9372 1605.7216 C 1424.4841 1604.944 1425.3172 1604.551 1425.9328 1604.5057 z M 1476.0993 1608.559 L 1479.0129 1609.4027 C 1480.616 1609.8661 1487.5941 1610.4528 1494.5183 1610.7064 C 1501.4422 1610.96 1507.2887 1611.4622 1507.5114 1611.8226 C 1508.3017 1613.1013 1504.518 1619.4391 1500.6618 1623.2953 C 1498.5099 1625.4472 1495.2494 1627.9342 1493.4152 1628.8221 C 1487.7287 1631.5749 1476.7363 1630.5054 1471.3649 1626.6761 C 1468.2675 1624.468 1465.0535 1621.5208 1465.0895 1620.9222 C 1465.1096 1620.5862 1467.5946 1617.6677 1470.612 1614.4359 L 1476.0993 1608.559 z M 1532.9308 1613.9613 C 1530.4145 1613.687 1527.9825 1615.2847 1525.8644 1618.7118 C 1523.047 1623.2705 1523.9919 1627.8546 1528.2888 1630.4745 C 1531.36 1632.3472 1533.3641 1632.3192 1535.8415 1630.3705 C 1538.5 1628.2792 1540.0529 1625.1093 1540.0529 1621.7733 C 1540.0529 1619.6604 1539.471 1618.4551 1537.5026 1616.4867 C 1535.9805 1614.9645 1534.4408 1614.1259 1532.9308 1613.9613 z M 1431.946 1618.4364 C 1432.312 1618.4364 1434.0052 1619.9483 1435.7077 1621.7953 C 1438.0183 1624.3021 1438.8044 1625.7759 1438.8044 1627.6078 C 1438.8069 1630.875 1442.0293 1642.7545 1444.7678 1649.5936 C 1445.9786 1652.6172 1448.3641 1657.299 1450.069 1659.9984 C 1451.7738 1662.6979 1453.0538 1665.5042 1452.9138 1666.2343 C 1452.7739 1666.9643 1451.4828 1667.964 1450.0441 1668.4564 C 1442.7745 1670.9441 1430.1395 1667.7565 1426.4631 1662.5077 C 1424.5907 1659.8345 1424.832 1638.2556 1426.8293 1629.7479 C 1428.306 1623.458 1430.5769 1618.4364 1431.946 1618.4364 z M 1011.1154 1618.4481 C 1010.806 1618.4418 1010.5529 1628.5614 1010.5529 1640.9364 C 1010.5529 1653.457 1010.8478 1663.4364 1011.2165 1663.4364 C 1012.4232 1663.4364 1012.7631 1659.5005 1013.2819 1639.5565 C 1013.8051 1619.4406 1013.7086 1618.5011 1011.1154 1618.4481 z M 1533.6281 1618.6884 C 1535.1866 1619.2865 1535.7917 1622.2105 1534.863 1624.6532 C 1533.4817 1628.2861 1529.5529 1626.5835 1529.5529 1622.3519 C 1529.5529 1620.4893 1532.1762 1618.1313 1533.6281 1618.6884 z M 1317.9445 1619.9247 C 1317.2482 1619.7957 1316.5301 1619.8047 1315.863 1619.976 C 1314.9735 1620.2043 1314.1746 1620.7206 1313.6379 1621.58 C 1312.708 1623.069 1312.8041 1623.3904 1314.6706 1624.996 C 1316.0939 1626.2202 1317.4577 1626.6976 1319.0798 1626.5399 C 1321.0345 1626.3498 1321.4684 1625.956 1321.6711 1624.1859 C 1321.9278 1621.9439 1320.0335 1620.3118 1317.9445 1619.9247 z M 1267.6667 1621.5975 C 1266.5601 1621.4594 1264.1976 1622.0299 1262.4167 1622.8646 C 1258.42 1624.7377 1259.7952 1624.8645 1265.4372 1623.1429 C 1268.9099 1622.0833 1269.3145 1621.8031 1267.6667 1621.5975 z M 1326.1154 1622.1967 C 1324.2676 1622.1876 1324.0529 1622.4524 1324.0529 1624.7382 C 1324.0529 1626.7964 1324.524 1627.5907 1326.4904 1628.85 C 1329.9095 1631.0396 1331.3379 1630.8703 1331.9235 1628.204 C 1332.8737 1623.8778 1331.274 1622.2227 1326.1154 1622.1967 z M 1303.217 1622.9965 C 1301.7106 1623.0656 1300.2012 1623.5686 1299.029 1624.4906 L 1297.0529 1626.0448 L 1297.0646 1644.5531 C 1297.0767 1664.855 1297.2128 1665.5965 1301.487 1668.4769 C 1304.7677 1670.6878 1305.9532 1670.6312 1308.946 1668.1239 L 1311.4084 1666.0614 L 1311.3337 1647.7948 C 1311.2545 1628.3019 1310.9742 1626.6171 1307.3903 1624.1068 C 1306.227 1623.292 1304.7234 1622.9273 1303.217 1622.9965 z M 1019.8547 1624.9432 C 1019.0231 1625.2623 1018.8029 1627.5031 1018.8029 1635.6512 C 1018.8029 1641.3187 1019.0227 1649.0448 1019.2907 1652.8207 L 1019.2907 1652.8221 C 1019.5587 1656.598 1020.0148 1659.6864 1020.3044 1659.6864 C 1021.4971 1659.6864 1022.5124 1626.1463 1021.3547 1624.9886 C 1021.1081 1624.7418 1020.4331 1624.7213 1019.8547 1624.9432 z M 1456.384 1625.6361 C 1457.4029 1625.7288 1458.766 1626.9654 1462.3005 1630.6019 C 1465.308 1633.6962 1470.8916 1638.2277 1474.9699 1640.8822 C 1478.9807 1643.4926 1482.4718 1646.2838 1482.7263 1647.0858 C 1483.7661 1650.3618 1477.562 1654.12 1469.3522 1655.1864 C 1466.3692 1655.5739 1463.2529 1655.844 1462.4279 1655.787 C 1457.3058 1655.4355 1455.331 1654.9598 1454.3112 1653.8329 C 1453.0423 1652.4305 1450.0486 1643.7234 1447.7707 1634.8075 C 1446.9622 1631.643 1446.0972 1628.5211 1445.8474 1627.87 C 1445.4664 1626.8771 1446.0793 1626.6864 1449.6472 1626.6864 C 1451.9872 1626.6864 1454.5819 1626.3225 1455.4128 1625.8778 C 1455.7437 1625.7007 1456.0443 1625.6052 1456.384 1625.6361 z M 1302.1125 1627.8436 C 1302.9921 1627.5061 1303.9332 1627.9349 1304.9748 1629.1459 C 1306.3991 1630.8018 1306.509 1631.7441 1306.3049 1640.6302 C 1306.1826 1645.9548 1306.0776 1653.602 1306.0676 1657.6239 C 1306.0543 1664.2722 1305.9254 1664.9364 1304.6452 1664.9364 C 1302.0259 1664.9364 1300.7701 1661.8849 1301.7902 1657.9989 C 1302.088 1656.8645 1302.803 1655.9364 1303.3781 1655.9364 C 1304.2188 1655.9364 1304.2689 1655.4588 1303.6374 1653.4989 C 1303.2055 1652.1583 1302.5524 1650.4627 1302.1857 1649.7313 C 1301.7729 1648.9079 1301.8308 1647.8197 1302.3381 1646.8719 C 1302.9419 1645.7432 1302.9226 1645.0573 1302.2634 1644.2631 C 1301.5697 1643.4275 1301.5785 1642.9353 1302.3 1642.0658 C 1303.2024 1640.9785 1303.0775 1638.9455 1301.944 1636.2489 C 1301.5004 1635.1935 1301.7751 1634.9364 1303.3474 1634.9364 C 1306.2475 1634.9364 1306.0323 1632.1122 1303.0529 1631.0736 C 1300.5571 1630.2036 1300.0951 1628.6177 1302.1125 1627.8436 z M 1316.9543 1630.4364 C 1313.759 1630.4364 1313.6131 1634.7527 1316.7565 1636.287 C 1319.2618 1637.5098 1320.6519 1637.0245 1320.9064 1634.8368 C 1321.1809 1632.4776 1319.3473 1630.4364 1316.9543 1630.4364 z M 1329.4582 1634.2391 C 1329.01 1634.2306 1328.4121 1634.2738 1327.6154 1634.3314 C 1325.0102 1634.5199 1324.4279 1634.8338 1324.4279 1636.0541 C 1324.4279 1637.0234 1325.3485 1637.9831 1327.0529 1638.7904 C 1330.2931 1640.3253 1330.8029 1640.0441 1330.8029 1636.7235 C 1330.8029 1634.7562 1330.8028 1634.2647 1329.4582 1634.2391 z M 1417.5217 1636.1332 C 1418.1433 1636.7272 1418.1239 1641.9314 1418.0519 1652.3109 C 1417.9823 1662.3485 1417.8984 1670.9468 1417.8644 1671.4183 C 1417.7552 1672.9553 1415.8443 1673.0767 1412.8576 1671.7347 C 1408.6823 1669.8588 1405.4468 1666.9105 1403.2512 1662.9823 L 1401.3483 1659.5765 L 1403.6115 1660.0746 C 1407.3192 1660.8889 1410.201 1657.1214 1413.1418 1647.619 C 1415.6372 1639.5555 1416.9001 1635.5392 1417.5217 1636.1332 z M 1315.0529 1639.3456 L 1315.0529 1642.3544 C 1315.0529 1644.4221 1315.4632 1645.6064 1316.3654 1646.1425 C 1319.6333 1648.084 1322.653 1645.5394 1321.3854 1641.9135 C 1320.783 1640.1905 1320.1462 1639.7693 1317.8522 1639.5785 L 1315.0529 1639.3456 z M 1327.154 1641.8226 C 1324.8588 1641.4792 1325.1504 1643.3268 1327.6169 1644.7582 C 1328.7505 1645.4162 1329.9509 1645.8055 1330.2844 1645.6239 C 1331.3119 1645.0645 1328.851 1642.0766 1327.154 1641.8226 z M 1316.4357 1650.1268 C 1314.7508 1650.2095 1314.1978 1651.3811 1314.53 1653.8578 C 1314.7473 1655.478 1315.5131 1657.452 1316.2307 1658.245 C 1318.4917 1660.7434 1320.3658 1659.8231 1321.343 1655.7343 C 1321.9743 1653.0924 1320.8557 1650.9873 1318.507 1650.3978 C 1317.6845 1650.1914 1316.9974 1650.0993 1316.4357 1650.1268 z M 1327.5392 1651.4994 C 1326.732 1651.6226 1325.9803 1652.137 1325.5148 1653.0067 C 1324.2823 1655.3097 1325.2355 1657.9462 1327.614 1658.8148 C 1328.7492 1659.2294 1329.931 1659.5948 1330.2404 1659.6278 C 1331.1704 1659.7257 1330.8739 1653.3077 1329.9035 1652.3373 C 1329.2107 1651.6445 1328.3465 1651.3761 1327.5392 1651.4994 z M 1033.4279 1653.8549 L 1032.9401 1657.7074 C 1032.6715 1659.8269 1032.4186 1667.8833 1032.3776 1675.6093 L 1032.3029 1689.6556 L 1035.2736 1691.1718 C 1036.9072 1692.0051 1038.3825 1692.6864 1038.5519 1692.6864 C 1038.7213 1692.6864 1039.0898 1690.3539 1039.3708 1687.5023 C 1039.7269 1683.888 1040.2292 1682.1842 1041.029 1681.8773 C 1042.7922 1681.2007 1043.5499 1681.347 1043.5939 1682.3739 C 1043.616 1682.8895 1045.5841 1686.4955 1047.968 1690.3866 C 1051.7837 1696.6146 1052.6538 1697.5696 1055.2394 1698.37 L 1055.2409 1698.37 C 1061.4532 1700.2922 1061.4663 1699.7956 1055.446 1690.0336 C 1052.9118 1685.9244 1049.9779 1681.0617 1048.926 1679.2289 L 1047.0129 1675.8964 L 1053.653 1669.6898 C 1059.2098 1664.4956 1060.0596 1663.4065 1058.8605 1663.0204 C 1058.0723 1662.7667 1056.2376 1662.064 1054.7824 1661.4589 L 1052.1369 1660.3588 L 1046.4357 1666.0233 C 1043.3004 1669.1384 1040.3672 1671.6864 1039.9186 1671.6864 C 1039.395 1671.6864 1039.027 1668.8004 1038.8903 1663.6239 L 1038.6779 1655.5614 L 1036.0529 1654.7074 L 1033.4279 1653.8549 z M 1462.9377 1661.226 C 1463.5946 1661.1698 1464.3415 1661.1976 1465.1642 1661.3153 C 1466.8053 1661.55 1466.7199 1661.7103 1463.9411 1663.6268 C 1460.2713 1666.1579 1459.8029 1666.1805 1459.8029 1663.826 C 1459.8029 1662.3167 1460.9671 1661.3944 1462.9377 1661.226 z M 1326.1799 1661.6508 C 1325.7099 1661.6758 1325.4057 1661.9524 1324.9904 1662.496 C 1323.531 1664.406 1323.8744 1666.1874 1326.029 1667.8822 C 1327.1158 1668.7371 1328.6346 1669.4364 1329.404 1669.4364 C 1330.5387 1669.4364 1330.8029 1668.8628 1330.8029 1666.3998 C 1330.8029 1663.6892 1330.5415 1663.2525 1328.3654 1662.3173 C 1327.2856 1661.8533 1326.6498 1661.6258 1326.1799 1661.6508 z M 1316.3566 1662.7538 C 1315.9969 1662.8566 1315.8029 1663.3364 1315.8029 1664.1864 C 1315.8029 1665.1864 1316.3029 1665.6864 1317.3029 1665.6864 C 1319.0029 1665.6864 1319.2258 1664.9095 1317.9035 1663.5873 C 1317.2424 1662.9262 1316.7164 1662.651 1316.3566 1662.7538 z M 1065.5402 1665.1986 C 1065.3387 1665.4 1064.9837 1673.4968 1064.7507 1683.1913 L 1064.3273 1700.8177 L 1067.2526 1701.5897 C 1068.8616 1702.0144 1074.034 1703.2265 1078.7473 1704.2821 C 1083.459 1705.3374 1087.4688 1706.3566 1087.6623 1706.5482 L 1087.6652 1706.5482 C 1088.6062 1707.4842 1089.3 1705.7223 1089.3 1702.3925 C 1089.3 1699.3618 1089.061 1698.6908 1087.9875 1698.6908 C 1087.2656 1698.6929 1083.3859 1697.9336 1079.3654 1697.0033 L 1072.0558 1695.3114 L 1072.0558 1692.0433 C 1072.0534 1689.0345 1072.1872 1688.8061 1073.7404 1689.1737 C 1074.6685 1689.3934 1077.706 1689.8066 1080.4904 1690.0922 L 1085.5529 1690.6107 L 1085.5529 1687.5389 C 1085.5529 1684.799 1085.3293 1684.4154 1083.4904 1684.0013 C 1082.356 1683.7458 1080.2467 1683.2662 1078.8029 1682.9364 C 1077.3592 1682.6066 1075.2498 1682.1284 1074.1154 1681.8729 C 1072.2036 1681.4424 1072.0529 1681.1342 1072.0529 1677.6718 C 1072.0529 1674.9546 1072.3418 1673.9364 1073.112 1673.9364 C 1074.9642 1673.9364 1085.0973 1676.0305 1087.2404 1676.8558 L 1089.3029 1677.6498 L 1089.3029 1673.932 C 1089.3029 1670.6878 1089.0882 1670.1678 1087.6154 1669.8422 C 1086.6873 1669.637 1082.7217 1668.7759 1078.8029 1667.9291 C 1074.8842 1667.0824 1070.3792 1666.0399 1068.7922 1665.6117 C 1067.2052 1665.1834 1065.7416 1664.9971 1065.5402 1665.1986 z M 1011.902 1666.451 C 1011.7896 1666.4452 1011.5783 1666.8016 1011.1638 1667.516 C 1009.8695 1669.7467 1009.2969 1712.5474 1010.5412 1714.0468 C 1011.0615 1714.6737 1011.732 1715.1864 1012.0324 1715.1864 C 1013.012 1715.1864 1013.6043 1688.0722 1012.8351 1678.4364 C 1012.4235 1673.2802 1012.0691 1668.3864 1012.0471 1667.5614 C 1012.0275 1666.8245 1012.0145 1666.4569 1011.902 1666.451 z M 1315.1745 1666.8407 C 1315.0353 1666.9654 1314.6188 1668.3607 1314.2487 1669.9403 C 1313.6464 1672.5108 1313.7753 1672.9885 1315.4807 1674.4989 C 1316.5286 1675.427 1317.5835 1676.1864 1317.8244 1676.1864 C 1318.9938 1676.1864 1320.2585 1673.2375 1320.2795 1670.4589 C 1320.302 1667.5287 1320.1677 1667.3364 1317.8654 1666.9857 C 1316.5248 1666.7812 1315.3137 1666.716 1315.1745 1666.8407 z M 1274.2424 1666.9535 C 1273.7648 1666.8722 1273.0815 1667.0289 1271.9382 1667.3798 L 1269.3029 1668.1884 L 1269.3029 1678.5009 C 1269.3029 1684.1726 1269.1068 1689.3266 1268.8664 1689.953 C 1268.2245 1691.6259 1266.5562 1690.6612 1264.7077 1687.5492 C 1262.5489 1683.9149 1252.1487 1673.2455 1249.8996 1672.3573 C 1246.5421 1671.0314 1246.0529 1672.4195 1246.0529 1683.2865 C 1246.0529 1688.7405 1246.2695 1696.731 1246.5334 1701.0433 L 1247.0124 1708.8846 L 1250.0959 1708.473 L 1253.1779 1708.0614 L 1253.3874 1697.5951 L 1253.5969 1687.1288 L 1262.4797 1695.9882 C 1270.8946 1704.381 1271.4856 1704.8199 1273.7077 1704.3319 L 1276.0529 1703.8177 L 1276.0529 1686.578 C 1276.0529 1676.6682 1275.7388 1668.7493 1275.3132 1667.954 C 1274.9919 1667.3536 1274.72 1667.0348 1274.2424 1666.9535 z M 1482.2267 1669.5843 C 1482.5596 1669.5305 1482.7929 1669.749 1483.0881 1670.2157 C 1483.4691 1670.8181 1483.7812 1672.2117 1483.7912 1673.3124 C 1483.8196 1678.2562 1485.2135 1678.7025 1491.0598 1675.6415 C 1495.2696 1673.4374 1495.9904 1673.5719 1495.9904 1676.5555 C 1495.9904 1679.2558 1493.9799 1681.1986 1488.1345 1684.1449 C 1485.3605 1685.5432 1482.9269 1686.6864 1482.7263 1686.6864 C 1482.1449 1686.6864 1480.0182 1679.1329 1479.5593 1675.4364 C 1479.2083 1672.609 1479.4049 1671.8224 1480.7678 1670.5907 C 1481.461 1669.9643 1481.8939 1669.6382 1482.2267 1669.5843 z M 1425.0993 1670.1864 C 1425.4416 1670.1864 1428.0742 1671.1896 1430.9499 1672.4159 C 1433.8255 1673.6423 1436.8369 1674.6549 1437.6413 1674.6659 C 1438.733 1674.6811 1438.8867 1674.9029 1438.2507 1675.5389 C 1437.0874 1676.7022 1423.4208 1677.3884 1422.7585 1676.3168 C 1422.1803 1675.3812 1424.1638 1670.1864 1425.0993 1670.1864 z M 1108.7663 1672.6019 C 1107.3043 1672.5922 1105.8478 1672.7709 1104.4406 1673.1498 C 1100.6514 1674.1702 1095.4954 1678.5556 1094.0637 1681.9755 C 1092.6316 1685.3963 1092.7583 1694.4362 1094.2805 1697.412 C 1097.5647 1703.8328 1103.624 1708.8458 1109.4753 1709.9847 L 1109.4767 1709.9847 C 1113.1412 1710.6972 1116.8398 1710.0801 1120.3957 1708.1625 C 1123.9079 1706.2683 1124.3771 1704.9526 1124.4782 1696.7206 L 1124.5529 1690.6298 L 1118.7404 1690.2592 C 1115.5435 1690.0552 1112.4217 1689.7585 1111.8029 1689.6 C 1110.9178 1689.3734 1110.6308 1690.231 1110.4538 1693.6239 L 1110.2282 1697.9364 L 1113.1784 1697.9364 C 1115.5429 1697.9364 1116.2093 1698.248 1116.5388 1699.5082 C 1117.2543 1702.2442 1116.3562 1703.1835 1113.0349 1703.1835 C 1107.0657 1703.1781 1101.5822 1697.8936 1100.8137 1691.4047 C 1099.6136 1681.2721 1110.838 1675.7742 1116.7629 1683.5927 C 1117.4652 1684.5192 1118.0169 1684.2721 1120.2653 1682.0238 L 1122.9357 1679.3549 L 1120.9318 1677.4813 C 1117.5916 1674.3584 1113.1522 1672.6311 1108.7663 1672.6019 z M 1327.3869 1673.16 C 1326.0938 1673.0521 1324.8376 1673.6379 1324.1496 1675.1478 C 1322.988 1677.6973 1323.6665 1679.6774 1326.1667 1681.035 C 1330.0518 1683.1445 1331.6035 1682.4146 1331.717 1678.4247 C 1331.8016 1675.4484 1329.5421 1673.3399 1327.3869 1673.16 z M 1226.881 1674.1825 C 1221.803 1674.5825 1215.1263 1678.7199 1211.7126 1683.8783 C 1209.901 1686.6159 1209.6794 1687.6433 1209.6794 1693.3793 C 1209.6781 1699.0421 1209.9246 1700.2305 1211.7346 1703.3094 C 1213.7875 1706.8017 1217.2497 1709.5223 1221.1257 1710.6893 C 1225.5062 1712.0083 1230.0654 1711.3281 1237.195 1708.2899 L 1240.7121 1706.7914 L 1240.945 1698.5355 L 1241.1779 1690.2811 L 1237.8864 1690.7338 C 1236.0757 1690.9829 1232.6164 1691.1864 1230.1989 1691.1864 L 1225.8029 1691.1864 L 1225.8029 1695.0199 L 1225.8029 1698.8534 L 1228.4821 1698.351 C 1229.9551 1698.0746 1231.6426 1697.6631 1232.2321 1697.4369 C 1233.8835 1696.8032 1233.5828 1700.6579 1231.8454 1702.3954 C 1228.5649 1705.6758 1221.3438 1704.7361 1218.6882 1700.683 C 1216.7453 1697.7179 1216.3661 1691.2084 1217.9426 1687.8861 C 1220.5821 1682.3239 1228.1315 1679.6246 1232.4958 1682.6815 C 1234.22 1683.8891 1234.3343 1683.8505 1236.3923 1681.369 C 1237.5584 1679.9628 1238.5214 1678.5963 1238.5324 1678.3324 C 1238.5666 1677.52 1232.0527 1674.7438 1228.945 1674.2469 C 1228.2989 1674.1436 1227.6065 1674.1253 1226.881 1674.1825 z M 1144.7883 1676.1864 C 1141.3653 1676.1864 1141.0443 1676.3443 1140.5842 1678.2489 C 1140.3102 1679.3833 1138.7962 1682.8955 1137.2209 1686.0536 C 1134.1586 1692.193 1128.3029 1708.4223 1128.3029 1710.7699 C 1128.3029 1711.6151 1128.8323 1712.1867 1129.6154 1712.1967 C 1130.3373 1712.2024 1131.6634 1712.4052 1132.5627 1712.6464 C 1133.9612 1713.0215 1134.4354 1712.5319 1135.8425 1709.2611 L 1137.4875 1705.4364 L 1142.0827 1705.4803 C 1151.7452 1705.5712 1153.1926 1706.3096 1155.2297 1712.1981 L 1155.2297 1712.1996 C 1155.8217 1713.9106 1156.2056 1714.0604 1159.343 1713.8109 C 1163.4145 1713.487 1163.5715 1712.9042 1160.9748 1707.7802 C 1158.2385 1702.3803 1150.3103 1683.0182 1149.3425 1679.3739 L 1148.4958 1676.1864 L 1144.7883 1676.1864 z M 1167.3029 1676.7445 L 1167.3029 1695.6776 L 1167.3029 1714.6107 L 1168.9904 1714.1595 C 1169.9185 1713.9108 1175.4873 1713.7067 1181.3654 1713.6967 L 1192.0529 1713.6864 L 1192.0529 1710.3114 L 1192.0529 1706.9364 L 1183.5422 1706.9364 L 1175.0314 1706.9364 L 1174.4997 1692.5194 C 1174.2077 1684.59 1173.8901 1678.0231 1173.7951 1677.9281 C 1173.6997 1677.8327 1172.2002 1677.5277 1170.4626 1677.2499 L 1167.3029 1676.7445 z M 1199.6379 1676.8002 L 1196.5529 1677.0946 L 1196.5529 1695.4315 L 1196.5529 1713.7684 L 1200.1154 1713.5399 L 1203.6779 1713.3114 L 1203.4831 1695.6864 C 1203.3757 1685.9927 1203.1609 1677.7114 1203.0056 1677.2836 C 1202.8481 1676.8499 1201.3586 1676.6361 1199.6379 1676.8002 z M 1300.4221 1680.8593 C 1301.7647 1680.6354 1303.0899 1680.9826 1303.9846 1681.9711 C 1305.054 1683.1528 1305.2314 1686.0681 1305.36 1704.4139 C 1305.4412 1716.0101 1305.2735 1725.8783 1304.9865 1726.3427 C 1303.8237 1728.2238 1300.0322 1727.2452 1297.3576 1724.3739 L 1294.737 1721.5614 L 1294.9582 1703.4281 C 1295.1658 1686.3677 1295.2716 1685.1686 1296.7526 1683.1781 C 1297.7189 1681.8794 1299.0794 1681.0831 1300.4221 1680.8593 z M 1299.7277 1683.7216 C 1298.7493 1683.7184 1297.8045 1684.1015 1297.5085 1684.8729 C 1297.2581 1685.5254 1297.0529 1694.2335 1297.0529 1704.2235 C 1297.0529 1717.6631 1297.2944 1722.6277 1297.9816 1723.3148 C 1298.4924 1723.8256 1299.5892 1724.1457 1300.4191 1724.0267 C 1301.7216 1723.8401 1301.9279 1723.2477 1301.9279 1719.6864 C 1301.9279 1715.5781 1301.9191 1715.5615 1299.6779 1715.6757 L 1297.4279 1715.7899 L 1299.8654 1714.7367 L 1302.3029 1713.682 L 1302.3029 1704.2382 C 1302.3029 1695.3897 1302.2073 1694.7707 1300.7853 1694.3988 C 1299.4189 1694.0415 1299.3894 1693.914 1300.485 1693.1127 C 1301.9678 1692.0285 1303.0781 1686.5449 1302.1506 1684.8876 C 1301.7175 1684.1139 1300.7061 1683.7248 1299.7277 1683.7216 z M 1020.0891 1684.35 C 1019.276 1685.163 1018.314 1718.83 1019.049 1720.7455 C 1019.7044 1722.4534 1020.8033 1722.2137 1021.3298 1720.2489 C 1022.5822 1715.5755 1021.4558 1682.9832 1020.0891 1684.35 z M 1473.6208 1685.1498 C 1474.2596 1684.5282 1477.0529 1690.9995 1477.0529 1693.101 C 1477.0529 1693.5669 1475.281 1694.9022 1473.1154 1696.0673 C 1467.7101 1698.9754 1443.5586 1713.7236 1422.0993 1727.2216 C 1412.2934 1733.3896 1404.1225 1738.4364 1403.9411 1738.4364 C 1403.7597 1738.4364 1403.2626 1737.002 1402.8366 1735.2489 C 1402.4106 1733.4958 1401.7689 1731.1767 1401.4099 1730.0956 C 1400.856 1728.4277 1400.9553 1728.1816 1402.0676 1728.4725 C 1403.8639 1728.9422 1404.82 1728.399 1429.4704 1712.8954 C 1441.4099 1705.3861 1456.0717 1696.2226 1462.0529 1692.5326 C 1468.0342 1688.8426 1473.2397 1685.5206 1473.6208 1685.1498 z M 1311.6047 1685.1879 C 1312.1604 1685.7437 1312.4279 1692.334 1312.4279 1705.4481 C 1312.4279 1722.9582 1312.2979 1725.0138 1311.1154 1726.1962 C 1309.8654 1727.4461 1309.8073 1726.7773 1309.8073 1712.16 C 1309.8128 1693.3827 1310.4369 1684.0198 1311.6047 1685.1879 z M 1329.0158 1685.9467 C 1324.2758 1685.9773 1322.7751 1687.7623 1323.6354 1692.348 C 1324.0405 1694.5074 1324.4922 1694.9515 1326.7072 1695.3671 C 1329.8172 1695.9505 1330.1042 1696.9942 1327.2463 1697.3241 C 1324.9974 1697.5837 1323.9575 1699.9501 1325.6364 1700.9877 C 1326.419 1701.4714 1326.3589 1701.8819 1325.3361 1703.0121 C 1323.7513 1704.7632 1323.5411 1710.6864 1325.0637 1710.6864 C 1325.6193 1710.6864 1326.8439 1711.3539 1327.7853 1712.1703 C 1328.7266 1712.9868 1329.7573 1713.4941 1330.0764 1713.2968 C 1330.3956 1713.0996 1330.6451 1706.8633 1330.6301 1699.4379 C 1330.6035 1686.1945 1330.573 1685.9367 1329.0158 1685.9467 z M 1144.0031 1688.9481 C 1144.2366 1688.9544 1145.3193 1691.1481 1146.4084 1693.8231 L 1148.3889 1698.6864 L 1143.9079 1698.6864 C 1141.4438 1698.6864 1139.5414 1698.4245 1139.6789 1698.1034 C 1139.8164 1697.7822 1140.7491 1695.5885 1141.7531 1693.2284 C 1142.7572 1690.8683 1143.7697 1688.9381 1144.0031 1688.9481 z M 1375.1013 1698.7728 C 1373.6725 1698.6456 1372.1903 1698.9662 1370.7038 1699.7396 C 1362.7053 1703.9013 1360.3712 1716.2386 1367.071 1718.9423 C 1373.6554 1721.5995 1381.2537 1714.7113 1381.3767 1705.9725 C 1381.4219 1702.7579 1381.1456 1702.0706 1379.1779 1700.4955 C 1377.9047 1699.4763 1376.53 1698.9001 1375.1013 1698.7728 z M 1372.9641 1703.9423 C 1376.17 1703.9296 1376.4194 1709.9506 1373.3273 1712.7313 C 1370.8652 1714.9456 1370.1309 1715.2141 1369.173 1714.2562 C 1366.9437 1712.0269 1369.9111 1703.9543 1372.9641 1703.9423 z M 1330.2756 1714.8114 L 1327.8937 1714.9242 C 1324.5375 1715.0832 1323.3029 1716.3934 1323.3029 1719.7948 C 1323.3029 1722.2652 1323.623 1722.8599 1325.3654 1723.6254 C 1328.364 1724.9428 1328.5592 1725.6026 1326.5783 1727.7401 C 1324.6755 1729.7932 1324.0591 1735.0639 1325.6599 1735.5975 C 1326.3033 1735.8119 1326.3033 1736.2835 1325.6599 1737.4857 C 1324.2398 1740.1392 1324.6132 1743.3715 1326.4904 1744.681 C 1330.4575 1747.4485 1330.5106 1747.2539 1330.3884 1730.3739 L 1330.2756 1714.8114 z M 1394.3801 1730.6361 L 1394.7287 1736.9745 C 1395.1324 1744.3242 1395.2251 1744.1868 1386.2487 1749.5634 C 1383.3802 1751.2815 1380.858 1752.6864 1380.6442 1752.6864 C 1380.0785 1752.6864 1379.7299 1751.2887 1379.2365 1747.0511 L 1378.7985 1743.2909 L 1382.4123 1742.0062 C 1387.8979 1740.0578 1391.0115 1737.6436 1392.779 1733.9672 L 1394.3801 1730.6361 z M 1292.5529 1730.7738 L 1294.6154 1731.2792 C 1295.7498 1731.557 1298.4835 1732.631 1300.6901 1733.6669 L 1304.7023 1735.5507 L 1304.4401 1741.9344 C 1304.1974 1747.8438 1304.0212 1748.4514 1302.0729 1750.1273 C 1300.9155 1751.1228 1299.5498 1751.9364 1299.0378 1751.9364 C 1298.5258 1751.9364 1296.8578 1750.6573 1295.3303 1749.0931 L 1292.5529 1746.2484 L 1292.5529 1738.5111 L 1292.5529 1730.7738 z M 1318.1452 1735.4364 C 1314.8829 1735.4364 1314.0004 1737.0374 1314.2194 1742.5614 C 1314.2684 1743.7989 1314.9767 1745.9083 1315.7941 1747.2489 C 1316.6115 1748.5895 1317.4455 1749.6864 1317.6472 1749.6864 C 1318.7248 1749.6864 1320.4072 1744.5608 1320.4362 1741.1888 C 1320.486 1735.4519 1320.4807 1735.4364 1318.1452 1735.4364 z M 1299.5344 1735.4481 C 1298.6306 1735.4418 1297.6829 1735.7739 1297.4279 1736.1864 C 1296.8378 1737.1413 1298.5753 1737.1413 1300.0529 1736.1864 C 1300.9675 1735.5953 1300.8703 1735.4581 1299.5344 1735.4481 z M 1300.1203 1737.7816 C 1299.8845 1737.7236 1299.5683 1737.7575 1299.1506 1737.8168 C 1297.6342 1738.0318 1297.381 1738.5819 1297.0412 1742.4003 C 1296.8248 1744.8327 1296.9837 1747.0668 1297.4016 1747.4847 C 1297.8116 1747.8947 1298.6595 1748.133 1299.2868 1748.0135 C 1300.1475 1747.8497 1300.4823 1746.5416 1300.6506 1742.6844 C 1300.8128 1738.9675 1300.8278 1737.9556 1300.1203 1737.7816 z M 1005.7058 1739.6478 C 1005.4307 1739.7192 1005.3029 1739.9911 1005.3029 1740.452 C 1005.3029 1742.4105 1013.4339 1749.7885 1021.28 1754.9481 C 1028.3867 1759.6216 1045.4268 1768.6119 1052.61 1771.4789 C 1066.3119 1776.9476 1087.8288 1782.656 1105.8029 1785.5897 C 1110.9592 1786.4312 1116.0217 1787.2648 1117.0529 1787.4427 C 1120.1513 1787.9773 1124.1883 1787.6124 1124.0373 1786.8114 C 1123.8625 1785.884 1117.608 1784.6873 1103.9279 1782.9633 C 1096.1207 1781.9794 1091.3122 1780.8978 1085.1779 1778.746 C 1080.6404 1777.1542 1071.1904 1773.8929 1064.1779 1771.4979 C 1045.6838 1765.1818 1021.0047 1752.3516 1012.7473 1744.7601 C 1008.6883 1741.0285 1006.5308 1739.4337 1005.7058 1739.6478 z M 1324.4338 1752.8959 C 1324.1388 1753.0362 1324.0529 1753.3808 1324.0529 1753.9886 C 1324.0529 1755.4857 1325.7882 1757.4139 1327.8029 1758.1547 C 1329.903 1758.9269 1330.6639 1758.6898 1330.3107 1757.3739 C 1329.7095 1755.1337 1328.169 1753.5578 1326.0685 1753.0306 C 1325.2321 1752.8207 1324.7287 1752.7556 1324.4338 1752.8959 z M 1282.5495 1776.7845 C 1282.1526 1776.7798 1281.6219 1776.8406 1280.9265 1776.9735 C 1278.1447 1777.505 1272.7317 1779.1837 1262.7404 1782.3817 C 1255.6248 1784.6593 1249.8029 1786.6728 1249.8029 1786.8553 C 1249.8029 1787.3044 1249.4819 1787.3346 1258.5934 1786.0218 C 1267.6233 1784.7211 1282.688 1780.1072 1283.3244 1778.4486 C 1283.7248 1777.4053 1283.7402 1776.7986 1282.5495 1776.7845 z " /><text
       xml:space="preserve"
       style="font-style:normal;font-variant:normal;font-weight:bold;font-stretch:normal;font-size:30px;line-height:1.25;font-family:sans-serif;-inkscape-font-specification:'sans-serif, Bold';font-variant-ligatures:normal;font-variant-caps:normal;font-variant-numeric:normal;font-variant-east-asian:normal;fill:#000000;fill-opacity:1;stroke:none;stroke-width:0.75"
       x="-2143.7329"
       y="1588.9348"
       id="text1"
       transform="matrix(0,-1.1547005,0.86602542,-0.50000001,0,0)"><tspan
         sodipodi:role="line"
         id="tspan1"
         x="-2143.7329"
         y="1588.9348"
         style="font-style:normal;font-variant:normal;font-weight:bold;font-stretch:normal;font-size:30px;font-family:sans-serif;-inkscape-font-specification:'sans-serif, Bold';font-variant-ligatures:normal;font-variant-caps:normal;font-variant-numeric:normal;font-variant-east-asian:normal;stroke-width:0.75">GPU</tspan></text><path
       id="path180"
       style="fill:#000000;fill-opacity:1"
       d="m 1004.1659,1756.2555 c -6.2935,7.5969 -6.1788,6.9406 -6.2358,36.1421 -0.056,28.7644 0.3292,31.8519 4.8969,39.2753 1.256,2.0412 2.007,3.9638 1.6685,4.273 -0.3384,0.3092 -1.9651,0.9817 -3.6152,1.4941 -4.9192,1.5274 -10.125,3.8887 -10.125,4.5923 0,0.9005 -0.3077,0.9745 8.2617,-2.0083 4.2115,-1.4659 7.7443,-2.5628 7.8515,-2.4375 0.7538,0.881 2.6858,5.305 2.4288,5.562 -0.1754,0.1753 -1.9724,0.7714 -3.9932,1.3243 -16.6381,4.552 -16.6955,4.5711 -15.8906,5.3759 0.2246,0.2247 5.2296,-0.7955 11.1225,-2.2661 l 10.7139,-2.6733 1.7534,1.6465 c 2.3192,2.1787 2.2153,2.6716 -0.6855,3.2578 -3.8001,0.7678 -19.3125,6.6167 -19.3125,7.2817 0,0.9857 1.1555,0.7188 9.9448,-2.2983 11.785,-4.0453 13.1727,-4.2158 15.9302,-1.9571 2.0881,1.7103 2.1312,1.8457 0.6093,1.8457 -2.2876,0.01 -19.8495,6.5473 -21.1992,7.897 -1.6605,1.6605 -0.1447,1.4105 7.2788,-1.2012 13.4711,-4.7393 16.0477,-5.2366 18.9844,-3.665 2.3651,1.2658 1.7245,1.9288 -3.6064,3.7295 -7.6391,2.5804 -22.1612,9.2403 -22.5176,10.3271 -0.243,0.7411 0.2548,0.7136 2.1928,-0.1201 5.1817,-2.2291 18.4081,-7.13 22.3316,-8.2749 5.3321,-1.5559 7.7858,-1.4998 9.334,0.211 1.4304,1.5805 1.9507,1.272 -7.7827,4.6186 -5.2738,1.8133 -12.221,5.155 -14.625,7.0342 -1.3693,1.0704 -1.206,1.0783 1.875,0.1 1.8563,-0.5896 6.75,-2.3077 10.875,-3.8174 4.125,-1.5096 9.0783,-3.1778 11.0083,-3.7075 3.3276,-0.9132 3.6566,-0.8624 6.3442,0.9639 l 2.833,1.9248 -9.3428,3.0981 c -9.929,3.2917 -16.7189,6.4107 -15.1318,6.9507 0.5286,0.1798 3.0599,-0.5094 5.625,-1.5308 5.9683,-2.3764 19.1919,-5.7832 22.4473,-5.7832 2.6979,0 6.3701,2.0569 5.3422,2.9927 -0.3441,0.3133 -5.4315,2.1581 -11.3056,4.0986 -10.1578,3.3557 -13.3363,4.9087 -10.0444,4.9087 0.8195,0 6.3016,-1.5187 12.1816,-3.375 10.3974,-3.2823 17.9742,-4.3548 19.0034,-2.6894 0.5613,0.9081 -3.54,3.3302 -8.2104,4.8486 -4.413,1.4347 -8.625,3.8668 -8.625,4.9805 0,0.5447 0.4445,0.5504 1.4428,0.016 0.7938,-0.4248 5.3458,-1.9555 10.1162,-3.4014 8.5722,-2.5984 12.1776,-3.0667 15.0293,-1.9511 1.2125,0.4743 0.6967,0.927 -3,2.6337 -2.4554,1.1336 -6.5764,2.9139 -9.1582,3.9566 -4.448,1.7964 -6.5256,3.2314 -4.6787,3.2314 0.4624,0 5.5496,-1.5382 11.3042,-3.4189 8.7334,-2.8538 11.0191,-3.3363 13.8281,-2.915 1.8511,0.2775 3.3663,0.7424 3.3663,1.0327 0,0.2904 -1.9385,1.1387 -4.3067,1.8852 -4.9325,1.5548 -12.0282,4.7911 -12.6269,5.7598 -0.6787,1.0983 1.5601,0.7366 5.083,-0.8218 6.9079,-3.0557 21.4384,-4.3675 25.2744,-2.2822 1.103,0.5996 0.1847,0.9676 -8.3613,3.3501 -2.3718,0.6612 -4.3125,1.5678 -4.3125,2.0156 0,1.0181 2.8015,0.5013 8.25,-1.5234 2.6583,-0.9878 5.9867,-1.5412 9.3603,-1.5572 l 5.2339,-0.025 -5.2339,2.5694 c -2.8793,1.413 -4.961,2.594 -4.6245,2.625 0.3365,0.031 1.2699,-0.2962 2.0742,-0.7266 0.8042,-0.4304 2.5549,-0.9059 3.8892,-1.0561 1.3342,-0.1501 4.1665,-0.5155 6.2944,-0.813 2.1279,-0.2975 5.1654,-0.2907 6.75,0.016 l 2.8814,0.5581 -3,0.9141 c -1.65,0.5023 -4.35,1.6293 -6,2.5048 -4.1009,2.1761 -2.3741,2.0598 3.2285,-0.2168 5.0912,-2.0687 7.56,-2.3377 13.5366,-1.4765 2.9423,0.424 3.696,0.7583 2.8184,1.2495 -0.6589,0.3687 -1.6215,0.6144 -2.1402,0.5464 -2.6968,-0.3518 -3.5275,0.3086 -1.0005,0.7954 1.6282,0.3136 4.1421,0.2331 5.625,-0.1802 1.8202,-0.5073 6.897,-0.4632 15.8072,0.1377 9.807,0.6616 18.813,0.6823 35.625,0.082 26.5195,-0.9469 33.5051,-1.5698 46.2993,-4.1235 5.2526,-1.0485 10.4171,-1.9058 11.4756,-1.9058 1.0585,0 2.8839,-0.4961 4.0576,-1.103 4.8273,-2.4963 7.609,-2.2872 13.9028,1.0474 3.216,1.7039 6.0029,2.9414 6.1934,2.7509 0.7691,-0.769 -0.7581,-1.8936 -4.125,-3.0395 -1.9545,-0.6652 -4.3974,-1.6809 -5.4287,-2.2573 l -1.875,-1.0489 2.9296,-1.2348 c 3.6011,-1.5167 8.1075,-0.6245 12.7837,2.5312 4.1562,2.8048 5.6617,3.3217 5.6617,1.9439 0,-1.3001 -3.8977,-3.8388 -6.9082,-4.5 -2.7354,-0.6008 -2.6669,-2.1707 0.145,-3.3355 2.9863,-1.237 6.6612,-0.4577 10.3081,2.1841 5.2691,3.8172 9.2051,5.4714 9.2051,3.8701 0,-0.3803 -2.5121,-1.8831 -5.5811,-3.3398 -8.706,-4.1324 -9.4532,-8.0684 -1.0093,-5.3145 2.181,0.7113 7.2072,2.7669 11.1695,4.5689 3.9622,1.8019 7.4898,3.2768 7.8398,3.2768 0.7279,0 -8.2326,-5.6024 -13.856,-8.663 -2.0731,-1.1283 -3.6061,-2.315 -3.4072,-2.6368 0.7762,-1.2558 4.9151,-1.5762 6.5625,-0.5083 0.9113,0.5908 4.0193,2.0055 6.9068,3.1436 2.8875,1.1382 7.558,3.073 10.3798,4.2993 2.8218,1.2263 5.2989,2.0621 5.5035,1.8574 0.6786,-0.6785 -3.4078,-2.873 -11.5694,-6.2124 -4.4351,-1.8147 -8.8379,-3.6974 -9.7837,-4.1836 l -1.7197,-0.8847 1.7197,-0.9537 c 0.9458,-0.525 2.2797,-0.9664 2.9649,-0.9814 1.4225,-0.03 19.8235,5.9043 24.0674,7.7622 1.5469,0.6769 2.8125,0.9619 2.8125,0.6328 0,-1.0645 -4.1918,-3.1146 -11.7422,-5.7436 -4.0607,-1.4139 -8.3953,-2.9593 -9.6328,-3.4351 l -2.25,-0.8657 2.625,-1.4077 c 1.4438,-0.7738 3.3442,-1.4215 4.2231,-1.4385 1.4496,-0.028 8.7847,2.4404 19.7769,6.6562 l 4.125,1.5821 -1.875,-1.6231 c -1.0312,-0.8931 -4.4062,-2.7657 -7.5,-4.1616 -3.0937,-1.3959 -6.9653,-3.1494 -8.6031,-3.8965 l -2.978,-1.3579 1.8208,-0.9756 c 3.2768,-1.7536 4.1692,-1.4989 25.5103,7.2862 0.7652,0.315 0.6453,-0.094 -0.375,-1.2803 -1.2529,-1.4573 -9.0971,-5.5292 -16.8501,-8.7466 l -1.8487,-0.7676 1.9102,-1.2509 c 1.7946,-1.1759 2.1545,-1.1661 5.9736,0.1743 2.2353,0.7846 7.9115,3.1543 12.6138,5.2661 8.4824,3.8095 11.4368,4.5908 6.6782,1.7651 -1.3624,-0.809 -6.4426,-3.4348 -11.2895,-5.8345 -4.8469,-2.3996 -8.8125,-4.6518 -8.8125,-5.0053 0,-0.3536 0.822,-1.0174 1.8266,-1.4751 1.5403,-0.7019 3.0677,-0.346 9.753,2.2763 4.3599,1.7102 9.8411,3.9564 12.1801,4.9908 3.887,1.719 4.1345,1.7509 2.8799,0.3647 -0.7549,-0.8342 -5.5394,-3.5275 -10.6318,-5.9853 -5.0924,-2.4578 -9.2578,-4.7798 -9.2578,-5.1592 0,-0.3793 0.5166,-1.1192 1.1484,-1.6436 1.3994,-1.1614 5.277,-0.1577 11.6016,3.0015 4.6662,2.3308 11.9194,4.8487 12.4467,4.3213 0.5069,-0.5068 -2.5505,-2.3325 -6.4467,-3.8496 -4.5404,-1.768 -12.75,-6.3734 -12.75,-7.1529 0,-0.3449 0.7594,-1.1238 1.6875,-1.7299 1.9967,-1.304 3.3385,-0.9248 13.6186,3.8437 3.6746,1.7045 6.8522,2.927 7.062,2.7173 0.2097,-0.2098 0.07,-0.3809 -0.3091,-0.3809 -0.3795,0 -4.3265,-2.1439 -8.7729,-4.7636 -6.0371,-3.5569 -7.8417,-4.9566 -7.1235,-5.5298 1.2469,-0.9953 3.1439,-0.6662 12.1025,2.102 4.0652,1.2561 7.5769,2.0984 7.8032,1.8721 0.5733,-0.5733 -3.7846,-2.308 -9.5493,-3.8013 -2.6705,-0.6918 -5.6359,-1.6665 -6.5903,-2.1665 l -1.7359,-0.9096 2.1167,-2.9649 c 2.3823,-3.3368 5.6505,-10.4552 6.8701,-14.9634 0.4136,-1.5286 0.6463,-11.2489 0.7061,-21.7089 -1.338,0.2434 -3.3659,0.5248 -6.8613,1.1074 -0.086,0.014 -0.1523,0.033 -0.2329,0.048 -0.1172,19.4936 -0.8574,22.3681 -6.6578,31.3345 -6.2764,9.7025 -15.3121,17.8796 -29.6791,26.8608 -25.1611,15.7287 -65.253,28.2897 -102.5699,32.1343 -14.2001,1.4629 -51.6898,1.7892 -60.8847,0.5303 -3.5062,-0.48 -10.425,-1.4126 -15.375,-2.0728 -10.9512,-1.4606 -35.3676,-7.488 -49.125,-12.126 -14.1082,-4.7562 -38.9985,-17.448 -49.4693,-25.226 -10.2531,-7.6163 -20.1718,-20.3431 -24.4175,-31.3286 -2.0335,-5.2617 -2.1631,-6.3004 -2.458,-19.8033 -0.3431,-15.7046 0.3958,-36.3396 1.3565,-37.894 0.4593,-0.7431 1.6742,-2.5529 4.4209,-5.7144 z m 6.4731,25.664 c -0.076,3e-4 -0.1633,0.021 -0.2651,0.021 -0.7448,0 -1.8541,30.7645 -1.1733,32.5386 0.2559,0.6668 0.9121,1.2114 1.459,1.2114 0.8026,0 0.9461,-3.1378 0.7412,-16.3125 -0.2558,-16.4408 -0.2275,-17.4599 -0.7618,-17.458 z m 7.8516,3.7705 c -1.4461,0 -1.4853,0.5729 -1.4853,21.6255 0,11.8938 0.2309,21.8549 0.5127,22.1367 1.5098,1.5098 1.9329,-2.8228 2.1826,-22.3227 0.2684,-20.9601 0.2419,-21.4395 -1.21,-21.4395 z m 7.1558,5.3804 c -1.1305,0.2324 -1.2648,3.1851 -0.7764,12.3047 v 0 c 0.3792,7.0798 0.8022,10.051 1.4019,9.8511 1.2719,-0.4238 1.1969,-21.6739 -0.078,-22.0987 -0.2033,-0.068 -0.3849,-0.09 -0.5464,-0.057 z m 8.6089,5.1196 c -0.4125,0 -0.75,1.7072 -0.75,3.794 0,2.3385 0.2878,3.6167 0.75,3.331 0.4125,-0.2549 0.75,-1.962 0.75,-3.7939 0,-1.8319 -0.3375,-3.3311 -0.75,-3.3311 z m 298.0195,38.7686 c -1.0334,0.2609 -3.75,2.1306 -7.7695,5.5122 -5.5184,4.6428 -11.452,8.5254 -21.375,13.9878 -18.0488,9.9356 -25.0144,12.9745 -41.625,18.1582 -5.5687,1.7378 -11.6437,3.6906 -13.5,4.3403 -9.8333,3.4417 -11.6861,4.1612 -12.3384,4.793 -0.9807,0.9499 3.0752,0.8837 7.9878,-0.1304 6.6562,-1.3739 24.4237,-6.6255 30.4966,-9.0146 15.2115,-5.9843 30.9676,-14.3157 43.979,-23.2544 5.8308,-4.0056 7.6915,-5.6201 11.8125,-10.2525 2.7154,-3.0524 3.3654,-4.4005 2.332,-4.1396 z m 17.2485,1.8091 c -0.6756,0.1946 1.3786,1.353 5.6001,3.0644 2.7534,1.1162 5.6819,2.0347 6.5069,2.0347 1.8499,0.01 -7.391,-4.3566 -10.5,-4.957 -0.8528,-0.1647 -1.3818,-0.207 -1.607,-0.1421 z m -327.5976,0.98 c -0.2729,0.028 -0.1123,0.3679 0.249,1.0429 1.3791,2.5769 10.8074,10.8309 16.9292,14.8213 26.6616,17.3789 48.7264,25.8695 79.686,30.6636 6.9245,1.0723 15.4592,2.4077 18.9654,2.9663 8.6078,1.3716 22.7355,1.5364 22.3154,0.2607 -0.1698,-0.5156 -0.9563,-0.9954 -1.749,-1.0664 -20.052,-1.8013 -37.2665,-4.6087 -59.5664,-9.7148 -19.0212,-4.3553 -21.6021,-5.4067 -40.125,-16.3433 -14.5861,-8.6122 -22.2729,-13.5089 -27.375,-17.436 -2.2687,-1.7463 -5.4092,-3.7102 -6.9786,-4.3652 -1.3716,-0.5724 -2.0782,-0.8569 -2.351,-0.8291 z m 339.8921,32.0859 c -1.2928,-0.249 -1.8273,1.3426 -0.7969,2.373 0.7861,0.7861 2.1094,0.1163 2.1094,-1.0678 0,-0.5787 -0.5906,-1.1662 -1.3125,-1.3052 z m -354.9375,6.6064 c -0.6187,0 -1.125,0.327 -1.125,0.7266 0,0.3996 0.5063,0.5318 1.125,0.2944 0.6188,-0.2375 1.125,-0.5644 1.125,-0.7265 0,-0.1621 -0.5062,-0.2945 -1.125,-0.2945 z m 225.769,5.3028 c -1.3061,0.021 -3.3686,0.2648 -6.394,0.7339 -11.7042,1.8145 -27.265,3.6541 -35.0625,4.1455 -4.6406,0.2924 -8.4375,0.8234 -8.4375,1.1806 0,0.9714 25.5809,0.05 34.9541,-1.2597 9.0585,-1.2655 16.7959,-3.2009 16.7959,-4.2012 0,-0.4196 -0.5498,-0.6205 -1.856,-0.5991 z m -60.416,4.393 c -1.8213,0.055 -3.6262,0.2214 -5.1343,0.523 -2.5875,0.5175 -3.0609,1.4622 -1.0312,2.0566 1.4765,0.4324 14.4932,-0.2221 15.3852,-0.7734 1.8509,-1.1438 -3.7557,-1.9723 -9.2197,-1.8062 z m 155.2544,1.8047 c -0.3528,0.023 -0.6888,0.1556 -0.958,0.4248 -0.3983,0.3983 -0.5206,1.2534 -0.2725,1.8999 0.6569,1.7118 3.4981,1.513 3.4981,-0.2446 0,-1.222 -1.2091,-2.1478 -2.2676,-2.0801 z m -82.6904,8.7788 c -0.5046,0.016 0.2299,0.5269 1.6318,1.1353 1.4018,0.6084 3.3256,1.9453 4.2759,2.9707 1.7069,1.8418 5.5503,2.6025 5.5503,1.0986 0,-0.4214 -0.9281,-1.1297 -2.0625,-1.5747 -1.1343,-0.4451 -3.5064,-1.4503 -5.2705,-2.2339 -1.7642,-0.7836 -3.6204,-1.412 -4.125,-1.396 z m -4.7022,4.4707 c -1.1135,0 -1.4912,1.5996 -0.5903,2.5005 0.7226,0.7226 4.5897,0.6149 5.0566,-0.1406 0.4316,-0.6982 -2.7129,-2.3599 -4.4663,-2.3599 z m -118.0898,1.5235 c -0.6187,0 -1.6312,0.3267 -2.25,0.7265 -1,0.6461 -1,0.7281 0,0.7281 0.6188,0 1.6313,-0.3282 2.25,-0.7281 1,-0.646 1,-0.7265 0,-0.7265 z m 105.9755,0.1347 c -0.8165,0.1748 -0.777,0.5579 0.2007,1.9468 1.2819,1.821 4.082,2.0244 4.6377,0.3369 0.3294,-1.0002 -3.1545,-2.6442 -4.8384,-2.2837 z m -10.4956,2.1153 c -0.6194,0.1109 -0.5276,1.1 0.5948,2.5268 1.5935,2.0258 1.7347,2.0669 2.688,0.7632 1.1442,-1.5648 0.9746,-2.6917 -0.4776,-3.1758 -0.6769,-0.2256 -0.7947,-7e-4 -0.3706,0.7032 0.525,0.8711 0.4264,0.8756 -0.6211,0.026 -0.8149,-0.6607 -1.4418,-0.9103 -1.8135,-0.8437 z m -10.393,1.4765 c -1.1523,0 -0.6362,2.2386 0.7324,3.1758 1.4474,0.9911 2.6807,0.6027 2.6807,-0.8452 0,-1.3967 -1.3675,-2.3306 -3.4131,-2.3306 z m -69.7354,0.75 c -1.8003,0 -2.3678,0.7347 -1.352,1.7505 0.8699,0.8699 2.3237,0.5416 2.7715,-0.6255 0.3119,-0.8127 -0.082,-1.125 -1.4195,-1.125 z m 10.9468,0 c -0.8753,0 -1.1003,2.4491 -0.2988,3.2505 0.9028,0.9028 3.081,0.5227 3.5171,-0.6137 0.412,-1.0737 -1.4959,-2.6368 -3.2183,-2.6368 z m 49.2568,0.1377 c -1.9672,-0.227 -2.8317,1.0867 -1.5556,2.3628 0.275,0.275 1.3129,0.4995 2.3056,0.4995 2.6194,0 1.951,-2.5505 -0.75,-2.8623 z m -22.5556,0.6123 c -2.2219,0 -2.6811,0.4776 -2.2061,2.294 0.4059,1.5523 0.884,1.7242 2.77,1.0005 1.92,-0.7368 1.4822,-3.2945 -0.5639,-3.2945 z m 11.9297,0 c -2.548,0 -3.5245,1.1543 -2.1446,2.5342 1.001,1.001 4.3228,0.1143 4.5762,-1.2217 0.1994,-1.0515 -0.2844,-1.3125 -2.4316,-1.3125 z m -25.648,0.086 c -0.8162,0.051 -1.0312,0.4367 -1.0312,1.4135 0,1.3024 0.383,1.5555 2.0625,1.3623 1.2279,-0.1413 2.0625,-0.6925 2.0625,-1.3623 0,-0.6697 -0.8346,-1.221 -2.0625,-1.3623 -0.4199,-0.048 -0.7592,-0.068 -1.0313,-0.051 z" /></g></svg>
